<?xml version="1.0" encoding="UTF-8"?>
<svg xmlns="http://www.w3.org/2000/svg" xmlns:xlink="http://www.w3.org/1999/xlink" width="139px" height="141px" viewBox="0 0 139 141" version="1.1">
<g id="surface1">
<path style="fill:none;stroke-width:5;stroke-linecap:round;stroke-linejoin:round;stroke:rgb(80%,20%,40%);stroke-opacity:1;stroke-miterlimit:4;" d="M 16.429884 51.672207 C 16.429884 47.808067 18.575849 44.677748 21.222038 44.677748 L 30.808847 44.677748 C 33.455036 44.677748 35.601 47.808067 35.601 51.672207 L 35.601 79.652482 C 35.601 83.514184 33.455036 86.646941 30.808847 86.646941 L 21.222038 86.646941 C 18.575849 86.646941 16.429884 83.514184 16.429884 79.652482 Z M 16.429884 51.672207 " transform="matrix(1.561798,0,0,1.602273,0,0)"/>
<path style="fill:none;stroke-width:5;stroke-linecap:round;stroke-linejoin:round;stroke:rgb(80%,20%,40%);stroke-opacity:1;stroke-miterlimit:4;" d="M 35.601 65.322252 C 35.601 61.397163 37.899533 58.215647 40.735808 58.215647 L 51.002923 58.215647 C 53.839197 58.215647 56.13773 61.397163 56.13773 65.322252 L 56.13773 79.537899 C 56.13773 83.462988 53.839197 86.646941 51.002923 86.646941 L 40.735808 86.646941 C 37.899533 86.646941 35.601 83.462988 35.601 79.537899 Z M 35.601 65.322252 " transform="matrix(1.561798,0,0,1.602273,0,0)"/>
<path style="fill:none;stroke-width:5;stroke-linecap:round;stroke-linejoin:round;stroke:rgb(80%,20%,40%);stroke-opacity:1;stroke-miterlimit:4;" d="M 56.13773 71.753546 C 56.13773 68.016179 58.283695 64.985816 60.929884 64.985816 L 70.514192 64.985816 C 73.162882 64.985816 75.308847 68.016179 75.308847 71.753546 L 75.308847 78.523715 C 75.308847 82.261082 73.162882 85.291445 70.514192 85.291445 L 60.929884 85.291445 C 58.283695 85.291445 56.13773 82.261082 56.13773 78.523715 Z M 56.13773 71.753546 " transform="matrix(1.561798,0,0,1.602273,0,0)"/>
<path style="fill:none;stroke-width:5;stroke-linecap:round;stroke-linejoin:round;stroke:rgb(80%,20%,40%);stroke-opacity:1;stroke-miterlimit:4;" d="M 8.216193 85.291445 L 87.631885 85.291445 " transform="matrix(1.561798,0,0,1.602273,0,0)"/>
<path style="fill:none;stroke-width:4;stroke-linecap:round;stroke-linejoin:round;stroke:rgb(80%,20%,40%);stroke-opacity:1;stroke-miterlimit:4;" d="M 31.79429 21.661126 C 32.204474 23.925975 33.882728 26.617465 36.708998 29.538121 C 39.53777 32.461215 43.439523 35.535461 48.12663 38.536569 C 52.813737 41.540115 58.168643 44.392509 63.796172 46.884087 C 69.421201 49.375665 75.173786 51.443041 80.631239 52.935062 M 76.476872 45.55297 L 81.54665 53.295878 L 69.698825 55.026817 " transform="matrix(1.561798,0,0,1.602273,0,0)"/>
</g>
</svg>
