<svg width="77" height="65" viewBox="0 0 167 162" fill="none" xmlns="http://www.w3.org/2000/svg">
<path fill-rule="evenodd" clip-rule="evenodd" d="M75.1966 0.187352C40.6122 2.51745 11.3505 26.751 2.54501 60.3297C-0.153092 70.6069 -0.741691 82.7727 0.950709 93.3442C3.08461 106.933 8.89773 120.08 17.5805 131.043C18.6597 132.393 21.4559 135.434 23.8351 137.813C29.3048 143.283 33.9161 146.839 40.2442 150.519C55.9666 159.618 74.2644 163.101 92.5376 160.452C100.828 159.251 109.854 156.307 117.63 152.309C121.113 150.519 122.462 149.513 122.462 148.679C122.462 147.722 121.456 146.643 120.573 146.619C120.279 146.619 118.366 147.502 116.281 148.556C111.915 150.837 108.873 152.138 104.728 153.511C90.4773 158.245 74.6078 158.662 60.2835 154.688C42.4518 149.734 27.22 138.745 16.8692 123.391C15.9862 122.091 15.2994 120.987 15.3485 120.963C15.4466 120.864 21.6276 122.827 37.4726 127.978C50.2026 132.123 54.961 133.619 55.3289 133.619C55.7213 133.619 55.7459 132.442 55.7459 117.676V101.733L51.6743 89.0518C49.4177 82.0613 47.2592 75.2671 46.8423 73.9426C46.4008 72.4955 45.9103 71.4408 45.6651 71.3182C44.8066 70.8521 40.3915 70.5333 36.9821 70.705C23.0013 71.3427 9.97704 74.5559 5.04684 78.5785C4.48274 79.0445 3.99214 79.4124 3.94314 79.4124C3.89404 79.4124 3.94312 77.8916 4.04122 76.0519C5.19402 54.6146 15.79 34.2075 32.8369 20.6436C34.1123 19.6134 35.216 18.8285 35.2406 18.8776C35.2897 18.9021 35.3879 21.2813 35.4369 24.151L35.5594 29.3264L34.7992 29.4736C33.5973 29.7189 31.5859 31.2151 30.5067 32.6132C29.452 34.0358 27.539 37.6905 27.539 38.3282C27.539 38.6716 27.8578 38.7206 29.9181 38.696C33.2048 38.6469 33.1067 38.6225 33.3766 39.4074C33.7445 40.4376 35.1916 41.247 36.4179 41.0754C37.5217 40.9282 38.6991 39.9716 38.9198 39.0395C39.067 38.4508 39.0915 38.4507 42.3783 38.4507H45.6894L44.9292 36.9056C43.2123 33.5208 40.7348 30.7 38.6745 29.768C37.6934 29.351 37.6688 29.3019 37.4972 27.8548C37.4236 27.0209 37.3501 24.2982 37.3501 21.7964L37.3745 17.2342L38.5274 16.4739C40.833 14.9286 44.5858 12.8437 47.7498 11.3475C50.963 9.80216 53.9555 8.62486 54.1272 8.79656C54.1762 8.84566 54.2742 17.3323 54.2987 27.634L54.3968 46.3732L53.4157 46.6675C50.0799 47.6486 46.9158 51.0825 44.9536 55.8409C44.5612 56.8465 44.2179 57.6806 44.2179 57.7296C44.2179 57.7787 45.9347 57.8277 48.0197 57.8277H51.8216V58.4409C51.8216 59.9126 53.2441 61.4088 54.8629 61.6786C56.678 61.9729 58.7384 60.5013 59.0818 58.6862L59.229 57.8277H63.0063C65.0912 57.8277 66.7835 57.7787 66.7835 57.7051C66.7835 57.6315 66.4402 56.8711 66.0232 56.0371C63.9383 51.9164 61.0686 48.507 58.6403 47.2806C57.8064 46.8882 56.997 46.5449 56.8498 46.5449C56.4083 46.5449 56.2367 40.2658 56.2367 23.1208V7.86435L58.395 7.22666C66.2685 4.84756 72.2532 4.03805 81.7946 4.01355C89.1529 3.98895 89.202 3.96445 89.202 2.27205C89.202 0.726753 88.589 0.407963 85.3758 0.162663C82.1136 -0.0581371 78.9985 -0.0579484 75.1966 0.187352ZM38.5028 30.7491C39.7047 31.3132 41.9122 33.5942 42.9178 35.2867C44.3159 37.6658 44.6103 37.4697 39.6557 37.4943C37.2274 37.4943 33.8671 37.5434 32.1501 37.6169C29.2313 37.7396 29.0105 37.715 29.0105 37.2981C29.0105 36.5132 30.8011 33.717 32.1992 32.3189C34.284 30.2095 36.2708 29.719 38.5028 30.7491ZM38.3313 38.8188C38.3313 39.0395 38.0613 39.481 37.718 39.7999C37.2765 40.2659 36.8596 40.413 36.0257 40.413C35.1181 40.413 34.8482 40.2904 34.3086 39.6527C33.9652 39.2357 33.72 38.8187 33.7937 38.696C33.8428 38.5979 34.8973 38.4998 36.1237 38.4753C37.9878 38.4262 38.3313 38.4999 38.3313 38.8188ZM58.2968 48.213C60.4062 49.3658 63.1043 52.5053 64.7967 55.792L65.3119 56.8467H55.5006C50.1045 56.8467 45.6895 56.7731 45.6895 56.6505C45.6895 56.1845 47.7498 52.5298 48.7309 51.2298C50.7422 48.6054 52.6309 47.5752 55.3535 47.5752C56.7515 47.5752 57.3157 47.6979 58.2968 48.213ZM58.4441 58.7844C58.4441 59.5203 57.2668 60.722 56.2855 60.9919C54.7403 61.4334 53.2196 60.7467 52.6554 59.3731C52.4592 58.9315 52.312 58.5147 52.312 58.441C52.312 58.3675 53.6856 58.3184 55.378 58.3184C58.2478 58.3184 58.4441 58.3429 58.4441 58.7844ZM47.5291 86.1574C49.9819 92.9026 51.9686 98.446 51.9441 98.495C51.8705 98.5686 50.7177 98.1762 36.2462 92.8536C32.1992 91.3819 28.1767 89.9103 27.2937 89.5915C26.4107 89.2726 25.1596 88.782 24.4729 88.5368C23.8106 88.2915 19.5183 86.7217 14.9561 85.0539C10.4184 83.386 6.71476 81.9143 6.76376 81.7917C6.93546 81.2766 11.1052 79.1427 13.9994 78.0635C18.8805 76.2484 26.3369 74.605 32.0764 74.0409C33.3028 73.9182 36.2708 73.8447 38.6745 73.8691L43.065 73.8937L47.5291 86.1574ZM10.6147 87.2613C10.9581 87.3594 13.9259 88.4632 17.2372 89.7141C20.5485 90.9405 25.5031 92.7801 28.2747 93.8102C49.1725 101.487 51.9197 102.518 52.214 102.738C52.5329 103.008 52.68 110.219 52.3611 110.416C52.2385 110.489 50.9876 110.121 49.5896 109.582C48.1915 109.067 45.0028 107.889 42.5009 107.006C39.9991 106.099 36.8105 104.946 35.3878 104.431C31.2671 102.91 7.84306 94.4479 7.25436 94.2762C6.86196 94.1536 6.61663 93.7857 6.42043 93.0743C6.05254 91.7253 5.75826 87.948 5.90536 86.6235L6.00344 85.5689L8.01473 86.3292C9.09403 86.7216 10.2713 87.1631 10.6147 87.2613ZM14.5391 99.5498C20.5975 101.757 33.2538 106.368 40.0481 108.846C41.4707 109.361 44.8065 110.587 47.4801 111.568L52.312 113.334V117.381C52.312 121.11 52.2876 121.404 51.8952 121.281C51.5272 121.183 11.0071 106.491 9.85433 106.025C9.60903 105.952 9.38832 105.633 9.31472 105.338C9.24112 105.044 8.82413 103.646 8.43173 102.248C7.99023 100.801 7.67135 99.1082 7.67135 98.3724C7.67135 97.661 7.69596 97.0724 7.74496 97.0724C7.79406 97.0724 10.8354 98.1761 14.5391 99.5498ZM14.2938 109.95C24.4483 113.482 27.269 114.487 31.4633 115.934C34.0877 116.866 39.8027 118.853 44.1687 120.374L52.0667 123.146V127.021V130.896L44.9046 128.444C40.9557 127.07 34.5292 124.863 30.6048 123.514C26.7049 122.164 21.6768 120.448 19.4447 119.712C16.1826 118.608 15.2749 118.216 14.7353 117.602C13.3863 116.106 11.6939 112.28 11.2033 109.68C11.0561 108.846 11.0806 108.772 11.4976 108.944C11.7429 109.042 13.0183 109.508 14.2938 109.95Z" fill="#CC3366"/>
<path fill-rule="evenodd" clip-rule="evenodd" d="M35.9765 76.4691C35.0935 76.8125 34.4067 77.9162 34.4067 78.9709C34.4067 81.0557 36.9085 82.1349 38.5274 80.7614C39.4839 79.9765 39.7047 78.9954 39.2142 77.8426C38.9443 77.2049 38.5765 76.8369 37.9878 76.5916C37.0067 76.1747 36.7124 76.1748 35.9765 76.4691Z" fill="#CC3366"/>
<path fill-rule="evenodd" clip-rule="evenodd" d="M23.7124 79.4124C22.8294 79.7558 22.1426 80.8595 22.1426 81.9142C22.1426 84.0236 24.62 85.1027 26.2633 83.7046C27.6859 82.5273 27.3916 80.2217 25.7237 79.5349C24.7426 79.118 24.4483 79.1181 23.7124 79.4124Z" fill="#CC3366"/>
<path fill-rule="evenodd" clip-rule="evenodd" d="M37.7179 83.7783C35.167 84.6122 34.8973 87.9725 37.301 89.1254C39.8273 90.3272 42.4763 87.1386 40.7594 84.9557C39.8764 83.8519 38.8217 83.4349 37.7179 83.7783Z" fill="#CC3366"/>
<path fill-rule="evenodd" clip-rule="evenodd" d="M100.387 15.8852C96.1189 16.4003 92.5869 18.0437 89.6926 20.9134C87.2152 23.3662 85.9153 25.819 85.1549 29.4982C84.6889 31.7302 84.6643 32.1962 84.9096 34.9434C85.2776 38.8433 85.9153 41.2225 87.2888 44.0432C90.7227 51.0582 97.8357 53.462 105.587 50.2488C112.234 47.4526 117.017 40.7074 116.085 35.4585C115.717 33.4472 115.226 32.2453 113.975 30.3567C112.086 27.4869 110.443 25.9908 107.598 24.6662C104.483 23.1946 100.902 23.4889 98.0565 25.4511C96.1924 26.7511 94.5491 29.302 94.034 31.7794C93.6416 33.6189 93.6906 34.5019 94.2547 36.317C94.8434 38.1811 96.3396 40.0451 98.1547 41.0999C99.1113 41.664 99.5528 41.7621 101.123 41.7621C102.643 41.7621 103.232 41.6395 104.385 41.0508C106.421 40.0697 107.132 38.9169 107.132 36.6359C107.132 34.551 106.273 32.4907 105.366 32.368C104.483 32.2454 104.287 33.0058 104.802 34.5265C105.881 37.617 104.973 39.3094 101.956 39.7999C100.362 40.0452 99.0132 39.5547 97.6641 38.2056C94.8189 35.3604 95.2604 30.651 98.6452 27.585C100.141 26.2605 101.638 25.6964 103.722 25.6964C107.941 25.6964 113.239 30.6755 114.122 35.5075C115.152 40.9771 109.168 47.7469 101.932 49.3412C93.666 51.1563 88.1718 46.03 86.8963 35.2623C85.719 25.2304 92.3906 17.8475 102.717 17.7984C106.911 17.7739 109.952 18.4852 113.435 20.3739C120.696 24.2247 124.179 31.1907 122.83 39.0641C121.996 43.9697 120.303 47.6734 115.986 54.1243C112.381 59.5204 111.645 60.8449 110.688 63.6656C110.149 65.309 109.879 66.609 109.781 68.3505L109.634 70.7542L102.619 70.9258C98.7679 71.0239 94.5735 71.1957 93.3226 71.2693C92.0962 71.3674 91.0661 71.3918 91.0661 71.3673C91.0661 71.3182 91.6301 70.7542 92.3414 70.141C95.7017 67.124 97.1488 62.7335 96.0941 58.7354C95.5054 56.4788 94.5489 54.8845 92.6848 53.045C89.5943 49.979 86.0624 48.6055 81.8681 48.8263C78.7285 48.9979 76.5454 49.7583 75.0983 51.2054C71.1002 55.2035 72.4002 63.7391 77.4284 66.3637C78.5076 66.9277 78.9737 67.0259 80.7642 67.0259C82.3586 67.0259 83.1189 66.9033 83.9774 66.5109C85.5717 65.7751 86.8473 64.3769 87.2642 62.8806C88.1718 59.7166 86.1114 57.3373 82.4813 57.3373C80.7398 57.3373 80.1265 57.5827 80.3472 58.1469C80.4453 58.4167 80.985 58.5393 82.4567 58.5884C84.7623 58.711 85.6207 59.1771 86.1113 60.6487C86.5528 61.9732 86.1605 63.1996 84.8604 64.3769C82.3831 66.658 78.287 66.3637 76.0304 63.7147C74.6568 62.0958 74.019 60.0845 74.0435 57.4601C74.0926 52.6281 76.4718 50.3714 81.8679 50.0526C89.2508 49.6111 95.7261 55.5468 95.1621 62.2184C94.8922 65.3335 93.2244 68.0561 90.0112 70.5089L88.5396 71.6617L85.0811 72.0786C72.7926 73.5748 65.9985 75.8559 65.091 78.7502C64.4042 80.9577 64.1344 88.0464 64.6004 92.4369C65.8022 104.21 70.389 113.923 78.4586 121.895C84.8358 128.149 92.1941 132.319 100.754 134.478C105.317 135.63 108.309 135.925 113.779 135.753C118.684 135.606 121.211 135.213 125.233 133.962C129.182 132.712 134.627 129.817 137.473 127.438L138.601 126.506L139.925 127.07C142.697 128.296 145.199 128.812 148.338 128.812C151.846 128.812 153.587 128.419 156.555 126.947C158.199 126.114 159.106 125.427 160.872 123.685C162.761 121.821 163.276 121.134 164.233 119.148C165.68 116.204 166.195 114.218 166.195 111.421C166.195 105.265 162.957 100.58 156.85 97.9065C154.667 96.9744 154.765 97.2933 155.403 93.0254C155.967 89.3218 156.31 84.9803 156.31 81.5955C156.31 78.971 156.261 78.7256 155.77 78.2596C155.01 77.5482 152.999 76.3956 151.601 75.8805C150.963 75.6352 150.399 75.2918 150.325 75.0956C150.105 74.5315 147.946 73.3051 146.254 72.7654C145.371 72.4956 142.575 71.8824 140.024 71.4164C134.161 70.3617 131.856 69.7485 129.697 68.7183C126.803 67.3447 125.528 65.8485 124.448 62.6599C123.443 59.7166 123.099 57.3127 123.271 54.3449C123.492 50.0034 124.718 46.8149 127.171 44.1904C129.55 41.6395 132.567 40.4131 136.443 40.3886C139.827 40.3886 142.427 41.4923 145.224 44.1904C148.388 47.2074 150.08 51.0582 149.884 54.7129C149.737 57.1657 149.05 58.6864 147.358 60.2562C145.567 61.9241 144.341 62.3655 141.593 62.3655C137.89 62.3655 134.873 61.0657 133.475 58.8336C132.862 57.877 132.763 57.5091 132.763 55.8903C132.788 52.7752 134.088 50.8866 136.467 50.5677C138.92 50.2243 140.293 51.6469 140.024 54.1733C139.926 55.277 139.975 55.5958 140.244 55.7184C140.833 55.9392 141.348 54.8846 141.348 53.5356C141.324 49.5866 136.786 47.8451 133.573 50.5923C132.052 51.8922 131.463 53.4866 131.586 56.111C131.66 57.9506 131.758 58.392 132.395 59.4222C133.278 60.8693 135.486 62.4391 137.546 63.1014C138.626 63.4693 139.705 63.592 141.593 63.592C143.874 63.592 144.316 63.5185 145.591 62.9298C147.431 62.0714 149.516 60.06 150.35 58.3431C150.988 57.0921 151.037 56.7243 151.037 54.1489C151.037 51.8433 150.939 51.0583 150.473 49.881C148.731 45.2207 144.463 41.0019 140.097 39.653C139.116 39.3341 137.89 39.1869 136.492 39.1869C132.273 39.1869 129.305 40.3887 126.484 43.2094C123.664 46.0301 122.339 49.3415 122.045 54.198C121.898 57.0432 122.192 59.545 123.001 62.243C124.915 68.4976 128.201 70.6316 138.822 72.4467C140.22 72.692 141.299 72.9128 141.25 72.9618C141.201 73.0109 139.631 72.8391 137.767 72.5694C131.684 71.6618 122.437 70.9505 114.122 70.7542L111.792 70.7052L111.817 68.6203C111.841 66.2902 112.479 63.8129 113.656 61.4828C114.049 60.6979 115.618 58.2206 117.139 55.9394C120.573 50.8622 121.382 49.4641 122.56 46.7415C123.86 43.6755 124.62 40.9037 124.964 37.9359C125.479 33.3982 124.448 29.155 121.971 25.3777C118.537 20.1288 112.356 16.6458 105.292 15.8854C102.717 15.6156 102.668 15.6154 100.387 15.8852ZM142.403 73.2068C142.231 73.2559 141.937 73.2559 141.79 73.2068C141.618 73.1332 141.741 73.0842 142.084 73.0842C142.428 73.0842 142.55 73.1332 142.403 73.2068ZM122.118 73.5257C136.982 74.3597 147.309 76.2238 152.484 78.9954L153.931 79.7802L153.759 83.8274C153.612 87.85 153.122 92.7555 152.607 95.1348C152.337 96.3121 152.312 96.3612 151.576 96.2876C150.669 96.2141 150.718 96.6064 151.037 91.1367L151.233 87.752L149.173 89.15C142.575 93.565 133.475 96.3857 121.849 97.5876C117.385 98.0537 105.783 97.9801 100.755 97.465C88.3436 96.1896 78.1155 93.7121 72.7194 90.6216C70.8798 89.5914 69.2365 88.0462 69.2365 87.3839C69.2365 87.1877 69.1383 87.0161 69.0156 87.0161C68.6722 87.0161 68.427 90.5235 68.5742 93.0009C68.7459 95.5518 69.4818 98.3725 70.4138 100.114C72.9156 104.725 82.9719 108.331 97.934 109.999C103.011 110.563 119.053 110.636 123.934 110.121C127.588 109.729 133.401 108.772 135.928 108.135L137.767 107.668L138.626 108.38C139.779 109.287 142.403 110.44 143.801 110.661C145.052 110.857 146.99 111.667 146.99 111.985C146.99 112.206 144.414 116.621 144.071 117.014C143.973 117.112 143.409 116.94 142.795 116.646C142.182 116.351 141.201 116.106 140.539 116.106C139.239 116.082 139.043 116.253 137.595 118.461C137.203 119.049 136.614 119.908 136.296 120.374C135.731 121.11 135.682 121.404 135.805 122.581C135.878 123.317 136.001 124.274 136.099 124.691C136.246 125.451 136.197 125.5 133.745 127.119C126.533 131.878 118.488 133.889 109.02 133.325C96.5849 132.589 84.1983 125.942 76.1532 115.714C69.1382 106.761 65.8269 94.5462 67.0532 82.2086C67.2004 80.7369 67.4457 79.388 67.5929 79.2163C67.7401 79.0201 68.4758 78.5786 69.2362 78.1861C73.5776 76.0031 83.6096 74.3107 96.7075 73.5503C101.687 73.256 117.139 73.2559 122.118 73.5257ZM144.537 73.5257C145.028 73.6729 145.052 73.7219 144.66 73.7219C144.39 73.7219 143.899 73.6238 143.556 73.5257C143.065 73.3785 143.041 73.3295 143.433 73.3295C143.703 73.3295 144.194 73.4276 144.537 73.5257ZM70.5363 90.1064C73.6759 92.78 83.1192 95.7479 93.5191 97.3177C107.23 99.3781 121.334 99.1573 132.518 96.6555C138.503 95.331 144.66 92.9272 148.682 90.3517L150.473 89.1989L150.326 91.3574C150.228 92.5347 150.105 94.0555 150.031 94.7422L149.884 95.9686L148.143 96.68C142.967 98.7894 137.032 101.365 136.884 101.561C136.811 101.708 136.664 102.37 136.59 103.057C136.467 104.185 136.565 104.897 137.056 106.54C137.203 107.031 137.056 107.104 135.045 107.595C132.469 108.183 127.883 108.919 123.811 109.385C119.175 109.9 103.036 109.827 98.0568 109.263C83.8797 107.668 74.4119 104.504 71.4931 100.408C70.7573 99.3533 69.9479 97.1703 69.5064 94.9138C69.2121 93.5403 69.1383 89.2234 69.3836 89.2234C69.4572 89.2234 69.9966 89.6159 70.5363 90.1064ZM151.846 98.4214C153.907 98.8383 156.531 99.8195 158.027 100.678C159.474 101.536 161.854 103.818 162.589 105.044C167.078 112.721 162.074 123.612 152.754 126.408C150.522 127.07 146.229 127.021 143.703 126.31C141.128 125.574 138.282 124.225 137.939 123.612C137.424 122.63 137.62 121.6 138.528 120.57C139.018 120.055 139.582 119.246 139.803 118.78C140.024 118.313 140.343 117.921 140.514 117.921C140.686 117.921 141.618 118.289 142.624 118.755C144.831 119.761 146.573 120.374 147.309 120.374C148.682 120.349 151.061 118.779 151.797 117.381C153.269 114.585 150.031 110.391 145.395 109.066C140.76 107.742 139.435 107.031 138.797 105.412C138.381 104.333 138.307 103.499 138.601 103.033C138.724 102.861 141.054 101.782 143.801 100.629C146.548 99.476 148.952 98.4214 149.173 98.2988C149.688 97.9799 149.884 98.0045 151.846 98.4214ZM150.105 115.174C150.326 116.082 149.909 116.965 148.952 117.602C147.995 118.264 147.137 118.534 146.622 118.314C146.303 118.191 146.376 117.946 147.088 116.842C147.554 116.106 148.192 115.027 148.486 114.463L149.001 113.408L149.467 113.972C149.737 114.291 150.007 114.831 150.105 115.174Z" fill="#CC3366"/>
<path fill-rule="evenodd" clip-rule="evenodd" d="M99.9207 75.7577C83.9776 76.2728 72.6948 78.0633 70.5363 80.4426C69.9722 81.0557 70.0458 82.7482 70.708 84.1462C71.4684 85.7406 73.7495 87.7518 76.325 89.0763C91.2134 96.7535 127.981 97.0234 143.777 89.5669C147.775 87.6783 150.031 85.7651 151.159 83.3123C151.871 81.718 151.797 80.835 150.939 80.3199C146.818 77.8917 135.339 76.2973 117.924 75.7332C109.879 75.4634 108.726 75.4633 99.9207 75.7577Z" fill="#CC3366"/>
</svg>
