<?xml version="1.0" encoding="UTF-8"?>
<svg xmlns="http://www.w3.org/2000/svg" xmlns:xlink="http://www.w3.org/1999/xlink" width="139px" height="141px" viewBox="0 0 139 141" version="1.1">
<g id="surface1">
<path style="fill:none;stroke-width:5;stroke-linecap:round;stroke-linejoin:round;stroke:rgb(80%,20%,40%);stroke-opacity:1;stroke-miterlimit:4;" d="M 81.484375 84.546875 C 81.484375 79.921875 83.984375 76.171875 87.074219 76.171875 L 98.257812 76.171875 C 101.347656 76.171875 103.851562 79.921875 103.851562 84.546875 L 103.851562 118.039062 C 103.851562 122.664062 101.347656 126.414062 98.257812 126.414062 L 87.074219 126.414062 C 83.984375 126.414062 81.484375 122.664062 81.484375 118.039062 Z M 81.484375 84.546875 "/>
<path style="fill:none;stroke-width:5;stroke-linecap:round;stroke-linejoin:round;stroke:rgb(80%,20%,40%);stroke-opacity:1;stroke-miterlimit:4;" d="M 57.515625 100.886719 C 57.515625 96.1875 60.199219 92.378906 63.507812 92.378906 L 75.492188 92.378906 C 78.800781 92.378906 81.484375 96.1875 81.484375 100.886719 L 81.484375 117.90625 C 81.484375 122.605469 78.800781 126.414062 75.492188 126.414062 L 63.507812 126.414062 C 60.199219 126.414062 57.515625 122.605469 57.515625 117.90625 Z M 57.515625 100.886719 "/>
<path style="fill:none;stroke-width:5;stroke-linecap:round;stroke-linejoin:round;stroke:rgb(80%,20%,40%);stroke-opacity:1;stroke-miterlimit:4;" d="M 35.148438 110.207031 C 35.148438 105.730469 37.652344 102.101562 40.742188 102.101562 L 51.925781 102.101562 C 55.011719 102.101562 57.515625 105.730469 57.515625 110.207031 L 57.515625 118.308594 C 57.515625 122.785156 55.011719 126.414062 51.925781 126.414062 L 40.742188 126.414062 C 37.652344 126.414062 35.148438 122.785156 35.148438 118.308594 Z M 35.148438 110.207031 "/>
<path style="fill:none;stroke-width:5;stroke-linecap:round;stroke-linejoin:round;stroke:rgb(80%,20%,40%);stroke-opacity:1;stroke-miterlimit:4;" d="M 22.367188 126.414062 L 115.035156 126.414062 "/>
<path style="fill:none;stroke-width:4;stroke-linecap:round;stroke-linejoin:round;stroke:rgb(80%,20%,40%);stroke-opacity:1;stroke-miterlimit:4;" d="M 22.097656 86.066406 C 25.542969 87.140625 29.992188 87.039062 35.121094 85.777344 C 40.25 84.511719 45.925781 82.117188 51.726562 78.765625 C 57.527344 75.414062 63.308594 71.195312 68.644531 66.417969 C 73.976562 61.640625 78.726562 56.425781 82.539062 51.164062 M 70.472656 50.914062 L 83.34375 50.355469 L 82.351562 65.171875 "/>
</g>
</svg>
