<svg width="600" height="162" viewBox="0 0 685 162" fill="none" xmlns="http://www.w3.org/2000/svg">
<g clip-path="url(#clip0_67_59)">
<path d="M198.998 105.13C197.534 105.13 195.908 104.825 194.118 104.215C192.37 103.605 190.56 102.853 188.689 101.958C186.819 101.104 184.968 100.271 183.138 99.4575C182.122 100.596 181.064 101.47 179.966 102.08C178.868 102.731 177.669 103.056 176.367 103.056C175.066 103.056 173.968 102.751 173.073 102.141C172.138 101.531 171.447 100.799 170.999 99.9455C170.511 99.1321 170.267 98.4001 170.267 97.7495C170.267 97.0175 170.613 96.3871 171.304 95.8585C171.955 95.3298 173.094 95.0655 174.72 95.0655C175.778 95.0655 176.937 95.1875 178.197 95.4315C179.499 95.6755 180.841 95.9805 182.223 96.3465C183.199 94.6385 184.094 92.6458 184.907 90.3685C185.761 88.0911 186.595 85.6715 187.408 83.1095C188.222 80.5475 189.035 77.9855 189.848 75.4235C187.978 74.8135 186.493 73.9188 185.395 72.7395C184.338 71.5601 183.809 70.2791 183.809 68.8965C183.809 68.1645 183.952 67.4325 184.236 66.7005C184.562 65.9685 185.009 65.3585 185.578 64.8705C186.148 64.3418 186.819 64.0775 187.591 64.0775C187.307 64.4841 187.103 65.0738 186.981 65.8465C186.859 66.6191 186.798 67.2901 186.798 67.8595C186.798 69.4048 187.124 70.7061 187.774 71.7635C188.425 72.7801 189.259 73.5731 190.275 74.1425C191.089 71.7025 191.922 69.4048 192.776 67.2495C193.671 65.0535 194.647 63.1015 195.704 61.3935C196.762 59.6855 197.921 58.3435 199.181 57.3675C200.442 56.3915 201.845 55.9035 203.39 55.9035C204.204 55.9035 205.058 56.0865 205.952 56.4525C206.888 56.8185 207.681 57.4488 208.331 58.3435C208.982 59.2381 209.307 60.4988 209.307 62.1255C209.307 63.5081 209.023 65.0128 208.453 66.6395C207.884 68.2255 207.01 69.7505 205.83 71.2145C204.651 72.6378 203.146 73.8171 201.316 74.7525C199.486 75.6471 197.331 76.1148 194.85 76.1555C194.81 76.1555 194.708 76.1555 194.545 76.1555C194.423 76.1555 194.139 76.1555 193.691 76.1555C192.878 78.6361 192.004 81.1575 191.068 83.7195C190.174 86.2815 189.218 88.7215 188.201 91.0395C187.185 93.3168 186.087 95.3501 184.907 97.1395C186.778 97.7088 188.669 98.2985 190.58 98.9085C192.492 99.4778 194.342 99.9455 196.131 100.311C197.921 100.718 199.568 100.921 201.072 100.921C201.926 100.921 202.699 100.84 203.39 100.677C204.082 100.515 204.753 100.271 205.403 99.9455C204.753 101.816 203.878 103.138 202.78 103.91C201.723 104.724 200.462 105.13 198.998 105.13ZM176.123 101.287C177.018 101.287 177.852 101.043 178.624 100.555C179.438 100.067 180.17 99.3761 180.82 98.4815C179.56 97.9528 178.319 97.5258 177.099 97.2005C175.92 96.8345 174.842 96.6515 173.866 96.6515C173.094 96.6515 172.565 96.7531 172.28 96.9565C171.996 97.1598 171.853 97.4445 171.853 97.8105C171.853 98.5018 172.26 99.2541 173.073 100.067C173.846 100.881 174.863 101.287 176.123 101.287ZM194.057 74.9965C195.887 74.9965 197.534 74.4881 198.998 73.4715C200.503 72.4141 201.764 71.1128 202.78 69.5675C203.838 67.9815 204.631 66.3751 205.159 64.7485C205.729 63.1218 206.013 61.6985 206.013 60.4785C206.013 59.2991 205.79 58.5061 205.342 58.0995C204.895 57.6521 204.387 57.4285 203.817 57.4285C202.557 57.4285 201.377 58.2418 200.279 59.8685C199.181 61.4951 198.124 63.6505 197.107 66.3345C196.131 68.9778 195.115 71.8651 194.057 74.9965ZM212.498 102.69C211.238 102.69 210.18 102.263 209.326 101.409C208.432 100.596 207.984 99.3355 207.984 97.6275C207.984 96.1635 208.31 94.5978 208.96 92.9305C209.611 91.2225 210.506 89.5551 211.644 87.9285C212.783 86.2611 214.064 84.7565 215.487 83.4145C216.951 82.0318 218.476 80.9338 220.062 80.1205C221.689 79.3071 223.295 78.9005 224.881 78.9005C226.467 78.9005 227.789 79.3275 228.846 80.1815C229.904 80.9948 230.432 82.0928 230.432 83.4755C230.432 84.4921 230.148 85.1835 229.578 85.5495C229.05 85.9155 228.338 86.0985 227.443 86.0985C227.525 85.7731 227.586 85.4275 227.626 85.0615C227.708 84.6548 227.748 84.2888 227.748 83.9635C227.748 83.0281 227.525 82.2351 227.077 81.5845C226.63 80.8931 225.857 80.5475 224.759 80.5475C223.621 80.5475 222.462 80.9541 221.282 81.7675C220.103 82.5401 218.964 83.5975 217.866 84.9395C216.768 86.2408 215.792 87.6641 214.938 89.2095C214.084 90.7548 213.413 92.2798 212.925 93.7845C212.437 95.2891 212.193 96.6311 212.193 97.8105C212.193 99.3965 212.742 100.189 213.84 100.189C214.776 100.189 215.792 99.7625 216.89 98.9085C217.988 98.0138 219.107 96.8955 220.245 95.5535C221.425 94.1708 222.543 92.7475 223.6 91.2835C224.658 89.8195 225.593 88.4775 226.406 87.2575C226.569 87.0135 226.671 86.8915 226.711 86.8915C226.955 86.9321 227.26 87.0135 227.626 87.1355C228.033 87.2575 228.379 87.4201 228.663 87.6235C228.948 87.8268 229.09 88.0911 229.09 88.4165C229.09 88.7825 228.907 89.2908 228.541 89.9415C228.175 90.5515 227.769 91.2631 227.321 92.0765C226.874 92.8898 226.467 93.7235 226.101 94.5775C225.735 95.3908 225.552 96.1635 225.552 96.8955C225.552 97.5055 225.715 98.1155 226.04 98.7255C226.366 99.2948 226.894 99.5795 227.626 99.5795C228.724 99.5795 230.168 98.7865 231.957 97.2005C233.747 95.5738 235.556 93.1541 237.386 89.9415L237.996 90.5515C237.142 92.7475 236.044 94.6791 234.702 96.3465C233.36 98.0138 231.917 99.3151 230.371 100.25C228.867 101.186 227.382 101.653 225.918 101.653C224.414 101.653 223.295 101.206 222.563 100.311C221.872 99.4168 221.526 98.4408 221.526 97.3835C221.526 97.1395 221.547 96.8751 221.587 96.5905C221.628 96.2651 221.669 95.9398 221.709 95.6145C219.961 97.9731 218.354 99.7421 216.89 100.921C215.467 102.101 214.003 102.69 212.498 102.69ZM263.391 105.13C261.561 105.13 260.301 104.724 259.609 103.91C258.918 103.097 258.572 102.06 258.572 100.799C258.572 99.6201 258.816 98.2171 259.304 96.5905C259.792 94.9638 260.301 93.3981 260.829 91.8935C261.521 89.9008 262.354 87.5625 263.33 84.8785C264.306 82.1945 265.343 79.3885 266.441 76.4605C267.58 73.5325 268.719 70.6451 269.857 67.7985C271.037 64.9518 272.175 62.3695 273.273 60.0515C270.467 60.0921 268.109 60.1531 266.197 60.2345C264.327 60.3158 262.639 60.4378 261.134 60.6005C259.63 60.7225 257.983 60.9461 256.193 61.2715C256.315 59.8888 257.027 58.8111 258.328 58.0385C259.63 57.2658 261.378 56.7168 263.574 56.3915C265.77 56.0661 268.271 55.9035 271.077 55.9035C273.883 55.9035 276.384 56.0255 278.58 56.2695C280.817 56.4728 282.911 56.6761 284.863 56.8795C286.815 57.0828 288.767 57.2048 290.719 57.2455C289.337 58.5061 287.751 59.2991 285.961 59.6245C284.172 59.9498 282.281 60.1125 280.288 60.1125C279.841 60.1125 279.373 60.1125 278.885 60.1125C278.397 60.0718 277.909 60.0515 277.421 60.0515C276.933 60.0515 276.445 60.0515 275.957 60.0515C274.656 63.3048 273.151 67.4121 271.443 72.3735C269.776 77.3348 268.088 82.9265 266.38 89.1485C265.811 91.3038 265.282 93.2355 264.794 94.9435C264.347 96.6515 263.981 98.2171 263.696 99.6405C263.452 101.064 263.33 102.446 263.33 103.788C263.33 103.992 263.33 104.215 263.33 104.459C263.33 104.703 263.351 104.927 263.391 105.13ZM281.396 101.409C279.81 101.409 278.631 100.901 277.858 99.8845C277.085 98.9085 276.699 97.7088 276.699 96.2855C276.699 95.3501 276.862 94.1708 277.187 92.7475C277.553 91.3241 278.021 89.8398 278.59 88.2945C279.159 86.7085 279.81 85.2241 280.542 83.8415C281.315 82.4588 282.128 81.3405 282.982 80.4865C283.836 79.5918 284.67 79.1445 285.483 79.1445C285.849 79.1445 286.154 79.2665 286.398 79.5105C286.683 79.7138 286.825 80.0391 286.825 80.4865C286.825 80.9745 286.5 81.7675 285.849 82.8655C285.239 83.9635 284.507 85.2241 283.653 86.6475C282.799 88.0708 282.047 89.5755 281.396 91.1615C280.786 92.7068 280.481 94.1911 280.481 95.6145C280.481 97.0785 280.725 98.0545 281.213 98.5425C281.701 99.0305 282.453 99.2745 283.47 99.2745C284.853 99.2745 286.317 98.5831 287.862 97.2005C289.448 95.8178 291.115 93.3981 292.864 89.9415L293.413 90.5515C292.234 94.0488 290.526 96.7328 288.289 98.6035C286.093 100.474 283.795 101.409 281.396 101.409ZM288.716 73.4715C288.065 73.4715 287.476 73.3088 286.947 72.9835C286.459 72.6581 286.215 72.1498 286.215 71.4585C286.215 70.6045 286.703 69.8725 287.679 69.2625C288.696 68.6118 289.692 68.2865 290.668 68.2865C291.278 68.2865 291.766 68.4288 292.132 68.7135C292.498 68.9981 292.681 69.4861 292.681 70.1775C292.681 70.9501 292.254 71.7025 291.4 72.4345C290.587 73.1258 289.692 73.4715 288.716 73.4715ZM298.306 102.507C295.825 102.507 293.954 101.816 292.694 100.433C291.474 99.0915 290.864 97.4241 290.864 95.4315C290.864 93.6015 291.311 91.6698 292.206 89.6365C293.141 87.6031 294.361 85.6918 295.866 83.9025C297.411 82.1131 299.099 80.6695 300.929 79.5715C302.759 78.4328 304.568 77.8635 306.358 77.8635C307.293 77.8635 308.147 78.1075 308.92 78.5955C309.733 79.0835 310.14 80.0798 310.14 81.5845C310.14 83.1298 309.672 84.5938 308.737 85.9765C307.842 87.3185 306.642 88.5181 305.138 89.5755C303.674 90.6328 302.047 91.5071 300.258 92.1985C298.509 92.8491 296.76 93.2558 295.012 93.4185C294.93 93.8251 294.869 94.2115 294.829 94.5775C294.788 94.9435 294.768 95.2891 294.768 95.6145C294.768 96.2245 294.829 96.8345 294.951 97.4445C295.113 98.0545 295.378 98.6238 295.744 99.1525C296.11 99.6405 296.598 100.027 297.208 100.311C297.858 100.596 298.651 100.738 299.587 100.738C301.335 100.738 303.064 100.25 304.772 99.2745C306.48 98.2578 308.066 96.9361 309.53 95.3095C310.994 93.6828 312.234 91.8935 313.251 89.9415L313.983 90.4905C312.885 92.9305 311.482 95.0451 309.774 96.8345C308.106 98.6238 306.276 100.006 304.284 100.982C302.332 101.999 300.339 102.507 298.306 102.507ZM295.317 92.2595C296.415 91.8935 297.655 91.3648 299.038 90.6735C300.42 89.9415 301.742 89.0875 303.003 88.1115C304.304 87.1355 305.361 86.0578 306.175 84.8785C307.029 83.6991 307.456 82.4588 307.456 81.1575C307.456 80.7101 307.374 80.3645 307.212 80.1205C307.049 79.8765 306.703 79.7545 306.175 79.7545C305.199 79.7545 304.162 80.1408 303.064 80.9135C301.966 81.6455 300.908 82.6215 299.892 83.8415C298.875 85.0615 297.96 86.4035 297.147 87.8675C296.333 89.3315 295.723 90.7955 295.317 92.2595ZM331.734 101.043C330.311 101.043 329.233 100.677 328.501 99.9455C327.81 99.2135 327.464 98.2781 327.464 97.1395C327.464 96.2855 327.607 95.3908 327.891 94.4555C328.217 93.5201 328.522 92.5645 328.806 91.5885C329.091 90.5718 329.233 89.5958 329.233 88.6605C329.233 87.5218 328.989 86.7491 328.501 86.3425C328.054 85.8951 327.485 85.6715 326.793 85.6715C325.533 85.6715 324.252 86.2001 322.95 87.2575C321.649 88.2741 320.388 89.5958 319.168 91.2225C317.948 92.8085 316.81 94.4555 315.752 96.1635C314.695 97.8715 313.76 99.3965 312.946 100.738C312.296 100.738 311.686 100.616 311.116 100.372C310.506 100.169 310.039 99.8438 309.713 99.3965C309.713 99.1931 309.937 98.5628 310.384 97.5055C310.791 96.4481 311.279 95.1468 311.848 93.6015C312.418 92.0561 312.926 90.4701 313.373 88.8435C313.821 87.2168 314.044 85.7325 314.044 84.3905C314.288 84.1058 314.675 83.8211 315.203 83.5365C315.732 83.2518 316.281 83.1095 316.85 83.1095C317.948 83.1095 318.497 83.6381 318.497 84.6955C318.497 85.3461 318.314 86.4441 317.948 87.9895C317.582 89.4941 317.115 91.0801 316.545 92.7475C317.643 91.0801 318.863 89.4331 320.205 87.8065C321.588 86.1391 323.052 84.7565 324.597 83.6585C326.143 82.5605 327.688 82.0115 329.233 82.0115C330.819 82.0115 331.958 82.5808 332.649 83.7195C333.381 84.8581 333.747 86.1188 333.747 87.5015C333.747 88.7621 333.544 89.9415 333.137 91.0395C332.731 92.0968 332.304 93.1338 331.856 94.1505C331.45 95.1265 331.246 96.1228 331.246 97.1395C331.246 97.9935 331.409 98.6035 331.734 98.9695C332.1 99.2948 332.548 99.4575 333.076 99.4575C334.093 99.4575 335.11 98.9898 336.126 98.0545C337.143 97.0785 338.119 95.8585 339.054 94.3945C340.03 92.9305 340.884 91.4461 341.616 89.9415L342.287 90.7345C341.433 92.7271 340.478 94.4961 339.42 96.0415C338.363 97.5868 337.204 98.8068 335.943 99.7015C334.683 100.596 333.28 101.043 331.734 101.043ZM344.045 101.653C343.354 101.653 342.642 101.47 341.91 101.104C341.219 100.779 340.65 100.23 340.202 99.4575C339.714 98.6848 339.47 97.7088 339.47 96.5295C339.47 95.1875 339.796 93.6828 340.446 92.0155C341.097 90.3481 341.971 88.7011 343.069 87.0745C344.167 85.4071 345.428 83.8821 346.851 82.4995C348.275 81.0761 349.759 79.9578 351.304 79.1445C352.85 78.2905 354.375 77.8635 355.879 77.8635C356.733 77.8635 357.384 78.0261 357.831 78.3515C358.319 78.6361 358.563 79.1038 358.563 79.7545C358.563 79.9171 358.543 80.0595 358.502 80.1815C358.502 80.3035 358.482 80.4458 358.441 80.6085C358.238 80.2831 357.933 80.0595 357.526 79.9375C357.16 79.7748 356.693 79.6935 356.123 79.6935C354.822 79.6935 353.541 80.1001 352.28 80.9135C351.06 81.6861 349.922 82.7231 348.864 84.0245C347.848 85.2851 346.953 86.6475 346.18 88.1115C345.408 89.5755 344.798 90.9988 344.35 92.3815C343.944 93.7235 343.74 94.8621 343.74 95.7975C343.74 96.6921 343.944 97.4038 344.35 97.9325C344.757 98.4611 345.286 98.7255 345.936 98.7255C347.034 98.7255 348.356 98.0341 349.901 96.6515C351.487 95.2688 353.094 93.3168 354.72 90.7955C356.347 88.2741 357.811 85.3258 359.112 81.9505C360.007 79.5918 360.922 77.1925 361.857 74.7525C362.833 72.3125 363.809 69.9741 364.785 67.7375C365.761 65.4601 366.697 63.4471 367.591 61.6985C368.527 59.9091 369.401 58.5061 370.214 57.4895C371.068 56.4321 371.821 55.9035 372.471 55.9035C372.797 55.9035 373.081 56.0458 373.325 56.3305C373.569 56.5745 373.691 56.8998 373.691 57.3065C373.691 57.9571 373.346 59.0755 372.654 60.6615C372.004 62.2068 371.129 64.0775 370.031 66.2735C368.974 68.4288 367.856 70.7875 366.676 73.3495C365.497 75.9115 364.358 78.5141 363.26 81.1575C362.203 83.8008 361.329 86.3628 360.637 88.8435C359.987 91.2835 359.661 93.5201 359.661 95.5535C359.661 96.6921 359.722 97.5461 359.844 98.1155C359.966 98.6848 360.373 98.9695 361.064 98.9695C361.918 98.9695 362.915 98.6035 364.053 97.8715C365.192 97.1395 366.331 96.1025 367.469 94.7605C368.608 93.4185 369.604 91.8121 370.458 89.9415L371.19 90.4905C370.418 92.5645 369.36 94.4351 368.018 96.1025C366.676 97.7291 365.233 99.0101 363.687 99.9455C362.183 100.921 360.739 101.409 359.356 101.409C357.852 101.409 356.794 100.901 356.184 99.8845C355.615 98.9085 355.33 97.8918 355.33 96.8345C355.33 96.1431 355.432 95.2281 355.635 94.0895C355.839 92.9508 356.123 91.6901 356.489 90.3075C355.188 92.4628 353.805 94.4148 352.341 96.1635C350.877 97.8715 349.434 99.2135 348.01 100.189C346.628 101.165 345.306 101.653 344.045 101.653ZM372.206 102.69C370.946 102.69 369.888 102.263 369.034 101.409C368.14 100.596 367.692 99.3355 367.692 97.6275C367.692 96.1635 368.018 94.5978 368.668 92.9305C369.319 91.2225 370.214 89.5551 371.352 87.9285C372.491 86.2611 373.772 84.7565 375.195 83.4145C376.659 82.0318 378.184 80.9338 379.77 80.1205C381.397 79.3071 383.003 78.9005 384.589 78.9005C386.175 78.9005 387.497 79.3275 388.554 80.1815C389.612 80.9948 390.14 82.0928 390.14 83.4755C390.14 84.4921 389.856 85.1835 389.286 85.5495C388.758 85.9155 388.046 86.0985 387.151 86.0985C387.233 85.7731 387.294 85.4275 387.334 85.0615C387.416 84.6548 387.456 84.2888 387.456 83.9635C387.456 83.0281 387.233 82.2351 386.785 81.5845C386.338 80.8931 385.565 80.5475 384.467 80.5475C383.329 80.5475 382.17 80.9541 380.99 81.7675C379.811 82.5401 378.672 83.5975 377.574 84.9395C376.476 86.2408 375.5 87.6641 374.646 89.2095C373.792 90.7548 373.121 92.2798 372.633 93.7845C372.145 95.2891 371.901 96.6311 371.901 97.8105C371.901 99.3965 372.45 100.189 373.548 100.189C374.484 100.189 375.5 99.7625 376.598 98.9085C377.696 98.0138 378.815 96.8955 379.953 95.5535C381.133 94.1708 382.251 92.7475 383.308 91.2835C384.366 89.8195 385.301 88.4775 386.114 87.2575C386.277 87.0135 386.379 86.8915 386.419 86.8915C386.663 86.9321 386.968 87.0135 387.334 87.1355C387.741 87.2575 388.087 87.4201 388.371 87.6235C388.656 87.8268 388.798 88.0911 388.798 88.4165C388.798 88.7825 388.615 89.2908 388.249 89.9415C387.883 90.5515 387.477 91.2631 387.029 92.0765C386.582 92.8898 386.175 93.7235 385.809 94.5775C385.443 95.3908 385.26 96.1635 385.26 96.8955C385.26 97.5055 385.423 98.1155 385.748 98.7255C386.074 99.2948 386.602 99.5795 387.334 99.5795C388.432 99.5795 389.876 98.7865 391.665 97.2005C393.455 95.5738 395.264 93.1541 397.094 89.9415L397.704 90.5515C396.85 92.7475 395.752 94.6791 394.41 96.3465C393.068 98.0138 391.625 99.3151 390.079 100.25C388.575 101.186 387.09 101.653 385.626 101.653C384.122 101.653 383.003 101.206 382.271 100.311C381.58 99.4168 381.234 98.4408 381.234 97.3835C381.234 97.1395 381.255 96.8751 381.295 96.5905C381.336 96.2651 381.377 95.9398 381.417 95.6145C379.669 97.9731 378.062 99.7421 376.598 100.921C375.175 102.101 373.711 102.69 372.206 102.69ZM415.291 101.653C414.6 101.653 413.888 101.47 413.156 101.104C412.465 100.779 411.896 100.23 411.448 99.4575C410.96 98.6848 410.716 97.7088 410.716 96.5295C410.716 95.1875 411.042 93.6828 411.692 92.0155C412.343 90.3481 413.217 88.7011 414.315 87.0745C415.413 85.4071 416.674 83.8821 418.097 82.4995C419.521 81.0761 421.005 79.9578 422.55 79.1445C424.096 78.2905 425.621 77.8635 427.125 77.8635C427.979 77.8635 428.63 78.0261 429.077 78.3515C429.565 78.6361 429.809 79.1038 429.809 79.7545C429.809 79.9171 429.789 80.0595 429.748 80.1815C429.748 80.3035 429.728 80.4458 429.687 80.6085C429.484 80.2831 429.179 80.0595 428.772 79.9375C428.406 79.7748 427.939 79.6935 427.369 79.6935C426.068 79.6935 424.787 80.1001 423.526 80.9135C422.306 81.6861 421.168 82.7231 420.11 84.0245C419.094 85.2851 418.199 86.6475 417.426 88.1115C416.654 89.5755 416.044 90.9988 415.596 92.3815C415.19 93.7235 414.986 94.8621 414.986 95.7975C414.986 96.6921 415.19 97.4038 415.596 97.9325C416.003 98.4611 416.532 98.7255 417.182 98.7255C418.28 98.7255 419.602 98.0341 421.147 96.6515C422.733 95.2688 424.34 93.3168 425.966 90.7955C427.593 88.2741 429.057 85.3258 430.358 81.9505C431.253 79.5918 432.168 77.1925 433.103 74.7525C434.079 72.3125 435.055 69.9741 436.031 67.7375C437.007 65.4601 437.943 63.4471 438.837 61.6985C439.773 59.9091 440.647 58.5061 441.46 57.4895C442.314 56.4321 443.067 55.9035 443.717 55.9035C444.043 55.9035 444.327 56.0458 444.571 56.3305C444.815 56.5745 444.937 56.8998 444.937 57.3065C444.937 57.9571 444.592 59.0755 443.9 60.6615C443.25 62.2068 442.375 64.0775 441.277 66.2735C440.22 68.4288 439.102 70.7875 437.922 73.3495C436.743 75.9115 435.604 78.5141 434.506 81.1575C433.449 83.8008 432.575 86.3628 431.883 88.8435C431.233 91.2835 430.907 93.5201 430.907 95.5535C430.907 96.6921 430.968 97.5461 431.09 98.1155C431.212 98.6848 431.619 98.9695 432.31 98.9695C433.164 98.9695 434.161 98.6035 435.299 97.8715C436.438 97.1395 437.577 96.1025 438.715 94.7605C439.854 93.4185 440.85 91.8121 441.704 89.9415L442.436 90.4905C441.664 92.5645 440.606 94.4351 439.264 96.1025C437.922 97.7291 436.479 99.0101 434.933 99.9455C433.429 100.921 431.985 101.409 430.602 101.409C429.098 101.409 428.04 100.901 427.43 99.8845C426.861 98.9085 426.576 97.8918 426.576 96.8345C426.576 96.1431 426.678 95.2281 426.881 94.0895C427.085 92.9508 427.369 91.6901 427.735 90.3075C426.434 92.4628 425.051 94.4148 423.587 96.1635C422.123 97.8715 420.68 99.2135 419.256 100.189C417.874 101.165 416.552 101.653 415.291 101.653ZM447.112 102.507C444.632 102.507 442.761 101.816 441.5 100.433C440.28 99.0915 439.67 97.4241 439.67 95.4315C439.67 93.6015 440.118 91.6698 441.012 89.6365C441.948 87.6031 443.168 85.6918 444.672 83.9025C446.218 82.1131 447.905 80.6695 449.735 79.5715C451.565 78.4328 453.375 77.8635 455.164 77.8635C456.1 77.8635 456.954 78.1075 457.726 78.5955C458.54 79.0835 458.946 80.0798 458.946 81.5845C458.946 83.1298 458.479 84.5938 457.543 85.9765C456.649 87.3185 455.449 88.5181 453.944 89.5755C452.48 90.6328 450.854 91.5071 449.064 92.1985C447.316 92.8491 445.567 93.2558 443.818 93.4185C443.737 93.8251 443.676 94.2115 443.635 94.5775C443.595 94.9435 443.574 95.2891 443.574 95.6145C443.574 96.2245 443.635 96.8345 443.757 97.4445C443.92 98.0545 444.184 98.6238 444.55 99.1525C444.916 99.6405 445.404 100.027 446.014 100.311C446.665 100.596 447.458 100.738 448.393 100.738C450.142 100.738 451.87 100.25 453.578 99.2745C455.286 98.2578 456.872 96.9361 458.336 95.3095C459.8 93.6828 461.041 91.8935 462.057 89.9415L462.789 90.4905C461.691 92.9305 460.288 95.0451 458.58 96.8345C456.913 98.6238 455.083 100.006 453.09 100.982C451.138 101.999 449.146 102.507 447.112 102.507ZM444.123 92.2595C445.221 91.8935 446.462 91.3648 447.844 90.6735C449.227 89.9415 450.549 89.0875 451.809 88.1115C453.111 87.1355 454.168 86.0578 454.981 84.8785C455.835 83.6991 456.262 82.4588 456.262 81.1575C456.262 80.7101 456.181 80.3645 456.018 80.1205C455.856 79.8765 455.51 79.7545 454.981 79.7545C454.005 79.7545 452.968 80.1408 451.87 80.9135C450.772 81.6455 449.715 82.6215 448.698 83.8415C447.682 85.0615 446.767 86.4035 445.953 87.8675C445.14 89.3315 444.53 90.7955 444.123 92.2595ZM465.901 101.653C464.152 101.653 462.892 101.043 462.119 99.8235C461.387 98.6441 461.021 97.1598 461.021 95.3705C461.021 93.4185 461.387 91.1005 462.119 88.4165C462.851 85.7325 463.807 82.9061 464.986 79.9375C466.206 76.9688 467.528 74.0815 468.951 71.2755C470.374 68.4288 471.798 65.8465 473.221 63.5285C474.644 61.2105 475.946 59.3601 477.125 57.9775C478.345 56.5948 479.301 55.9035 479.992 55.9035C480.439 55.9035 480.805 56.1678 481.09 56.6965C481.375 57.1845 481.598 57.7945 481.761 58.5265C481.924 59.2178 482.005 59.8481 482.005 60.4175C482.005 61.5155 481.72 62.9591 481.151 64.7485C480.622 66.4971 479.85 68.4695 478.833 70.6655C477.857 72.8208 476.678 75.0168 475.295 77.2535C473.953 79.4495 472.469 81.5641 470.842 83.5975C469.256 85.6308 467.568 87.3795 465.779 88.8435C465.535 89.9415 465.332 91.0191 465.169 92.0765C465.047 93.0931 464.986 94.0691 464.986 95.0045C464.986 96.5905 465.21 97.7698 465.657 98.5425C466.104 99.3151 466.775 99.7015 467.67 99.7015C468.768 99.7015 469.846 99.2135 470.903 98.2375C472.001 97.2615 473.018 96.0415 473.953 94.5775C474.929 93.0728 475.763 91.5275 476.454 89.9415L477.369 90.4295C475.742 93.8861 473.973 96.6311 472.062 98.6645C470.151 100.657 468.097 101.653 465.901 101.653ZM466.328 86.7695C467.751 85.3461 469.134 83.7195 470.476 81.8895C471.818 80.0188 473.058 78.0871 474.197 76.0945C475.376 74.1018 476.413 72.1701 477.308 70.2995C478.203 68.4288 478.894 66.7615 479.382 65.2975C479.87 63.7928 480.114 62.6338 480.114 61.8205C480.114 61.4138 480.053 61.1495 479.931 61.0275C479.85 60.9055 479.768 60.8445 479.687 60.8445C479.362 60.8445 478.792 61.3731 477.979 62.4305C477.206 63.4471 476.291 64.8298 475.234 66.5785C474.177 68.3271 473.099 70.3198 472.001 72.5565C470.903 74.7931 469.846 77.1315 468.829 79.5715C467.853 82.0115 467.019 84.4108 466.328 86.7695ZM504.459 105.13C501.571 105.13 499.233 104.398 497.444 102.934C495.695 101.511 494.414 99.6608 493.601 97.3835C492.828 95.1061 492.442 92.7271 492.442 90.2465C492.442 87.0338 492.93 83.8008 493.906 80.5475C494.882 77.2941 496.203 74.2035 497.871 71.2755C499.579 68.3068 501.51 65.6838 503.666 63.4065C505.821 61.0885 508.078 59.2788 510.437 57.9775C512.836 56.6355 515.195 55.9645 517.513 55.9645C519.18 55.9645 520.522 56.3711 521.539 57.1845C522.596 57.9571 523.125 59.2991 523.125 61.2105C523.125 62.3898 522.921 63.7318 522.515 65.2365C522.108 66.7005 521.559 68.1238 520.868 69.5065C520.176 70.8485 519.404 71.9668 518.55 72.8615C517.736 73.7561 516.903 74.2035 516.049 74.2035C515.723 74.2035 515.378 74.1018 515.012 73.8985C514.686 73.6951 514.402 73.3291 514.158 72.8005C514.768 72.1091 515.439 71.2551 516.171 70.2385C516.943 69.1811 517.675 68.0831 518.367 66.9445C519.058 65.7651 519.607 64.6265 520.014 63.5285C520.461 62.3898 520.685 61.3935 520.685 60.5395C520.685 59.7261 520.441 59.0755 519.953 58.5875C519.505 58.0588 518.753 57.7945 517.696 57.7945C515.947 57.7945 514.117 58.5061 512.206 59.9295C510.335 61.3528 508.505 63.2641 506.716 65.6635C504.967 68.0221 503.381 70.6655 501.958 73.5935C500.534 76.5215 499.396 79.5105 498.542 82.5605C497.728 85.6105 497.322 88.5181 497.322 91.2835C497.322 93.2761 497.606 95.1875 498.176 97.0175C498.745 98.8068 499.66 100.25 500.921 101.348C502.222 102.487 503.889 103.056 505.923 103.056C508.078 103.056 510.213 102.446 512.328 101.226C514.483 100.006 516.455 98.4001 518.245 96.4075C520.034 94.4148 521.457 92.2595 522.515 89.9415L523.369 90.5515C522.027 93.1948 520.4 95.6348 518.489 97.8715C516.577 100.067 514.442 101.816 512.084 103.117C509.725 104.459 507.183 105.13 504.459 105.13ZM524.17 102.69C522.91 102.69 521.852 102.263 520.998 101.409C520.104 100.596 519.656 99.3355 519.656 97.6275C519.656 96.1635 519.982 94.5978 520.632 92.9305C521.283 91.2225 522.178 89.5551 523.316 87.9285C524.455 86.2611 525.736 84.7565 527.159 83.4145C528.623 82.0318 530.148 80.9338 531.734 80.1205C533.361 79.3071 534.967 78.9005 536.553 78.9005C538.139 78.9005 539.461 79.3275 540.518 80.1815C541.576 80.9948 542.104 82.0928 542.104 83.4755C542.104 84.4921 541.82 85.1835 541.25 85.5495C540.722 85.9155 540.01 86.0985 539.115 86.0985C539.197 85.7731 539.258 85.4275 539.298 85.0615C539.38 84.6548 539.42 84.2888 539.42 83.9635C539.42 83.0281 539.197 82.2351 538.749 81.5845C538.302 80.8931 537.529 80.5475 536.431 80.5475C535.293 80.5475 534.134 80.9541 532.954 81.7675C531.775 82.5401 530.636 83.5975 529.538 84.9395C528.44 86.2408 527.464 87.6641 526.61 89.2095C525.756 90.7548 525.085 92.2798 524.597 93.7845C524.109 95.2891 523.865 96.6311 523.865 97.8105C523.865 99.3965 524.414 100.189 525.512 100.189C526.448 100.189 527.464 99.7625 528.562 98.9085C529.66 98.0138 530.779 96.8955 531.917 95.5535C533.097 94.1708 534.215 92.7475 535.272 91.2835C536.33 89.8195 537.265 88.4775 538.078 87.2575C538.241 87.0135 538.343 86.8915 538.383 86.8915C538.627 86.9321 538.932 87.0135 539.298 87.1355C539.705 87.2575 540.051 87.4201 540.335 87.6235C540.62 87.8268 540.762 88.0911 540.762 88.4165C540.762 88.7825 540.579 89.2908 540.213 89.9415C539.847 90.5515 539.441 91.2631 538.993 92.0765C538.546 92.8898 538.139 93.7235 537.773 94.5775C537.407 95.3908 537.224 96.1635 537.224 96.8955C537.224 97.5055 537.387 98.1155 537.712 98.7255C538.038 99.2948 538.566 99.5795 539.298 99.5795C540.396 99.5795 541.84 98.7865 543.629 97.2005C545.419 95.5738 547.228 93.1541 549.058 89.9415L549.668 90.5515C548.814 92.7475 547.716 94.6791 546.374 96.3465C545.032 98.0138 543.589 99.3151 542.043 100.25C540.539 101.186 539.054 101.653 537.59 101.653C536.086 101.653 534.967 101.206 534.235 100.311C533.544 99.4168 533.198 98.4408 533.198 97.3835C533.198 97.1395 533.219 96.8751 533.259 96.5905C533.3 96.2651 533.341 95.9398 533.381 95.6145C531.633 97.9731 530.026 99.7421 528.562 100.921C527.139 102.101 525.675 102.69 524.17 102.69ZM547.018 116.903C546.611 116.903 546.143 116.761 545.615 116.476C545.086 116.232 544.639 115.724 544.273 114.951C543.866 114.179 543.663 113.04 543.663 111.535C543.663 109.746 543.968 107.408 544.578 104.52C545.188 101.674 546.021 98.5221 547.079 95.0655C548.136 91.6088 549.356 88.0708 550.739 84.4515C552.121 80.7915 553.606 77.2738 555.192 73.8985C556.818 70.4825 558.465 67.4325 560.133 64.7485C561.841 62.0238 563.508 59.8685 565.135 58.2825C566.761 56.6965 568.307 55.9035 569.771 55.9035C570.625 55.9035 571.174 56.1678 571.418 56.6965C571.702 57.2251 571.845 57.8555 571.845 58.5875C571.845 60.3361 571.357 62.2475 570.381 64.3215C569.445 66.3955 568.185 68.4898 566.599 70.6045C565.013 72.6785 563.264 74.6711 561.353 76.5825C559.441 78.4531 557.51 80.0595 555.558 81.4015C555.354 81.8895 555.151 82.3978 554.948 82.9265C554.785 83.4145 554.602 83.9228 554.399 84.4515C554.846 84.5328 555.192 84.7768 555.436 85.1835C555.72 85.5495 555.883 85.9561 555.924 86.4035C556.208 88.2335 556.513 89.8805 556.839 91.3445C557.164 92.7678 557.652 93.8861 558.303 94.6995C558.994 95.5128 559.97 95.9195 561.231 95.9195C562.654 95.9195 563.854 95.4111 564.83 94.3945C565.806 93.3371 566.863 91.8528 568.002 89.9415L568.917 90.5515C567.9 92.9915 566.599 94.7605 565.013 95.8585C563.467 96.9565 562.105 97.5055 560.926 97.5055C560.194 97.5055 559.421 97.3225 558.608 96.9565C557.835 96.5905 557.103 96.1025 556.412 95.4925C556.412 98.0545 556.127 100.596 555.558 103.117C555.029 105.639 554.317 107.936 553.423 110.01C552.528 112.084 551.532 113.752 550.434 115.012C549.336 116.273 548.197 116.903 547.018 116.903ZM548.604 113.975C549.051 113.975 549.559 113.569 550.129 112.755C550.698 111.942 551.247 110.864 551.776 109.522C552.345 108.221 552.853 106.777 553.301 105.191C553.748 103.605 554.114 102.019 554.399 100.433C554.683 98.8475 554.826 97.4241 554.826 96.1635C554.826 94.9028 554.663 93.7641 554.338 92.7475C554.012 91.6901 553.484 90.4498 552.752 89.0265C551.735 92.0765 550.82 95.0248 550.007 97.8715C549.193 100.718 548.563 103.28 548.116 105.557C547.668 107.835 547.445 109.665 547.445 111.047C547.445 112.999 547.831 113.975 548.604 113.975ZM556.534 78.9005C559.177 76.4605 561.454 74.0205 563.366 71.5805C565.318 69.0998 566.822 66.9038 567.88 64.9925C568.937 63.0405 569.466 61.6578 569.466 60.8445C569.466 60.2751 569.181 59.9905 568.612 59.9905C567.554 59.9905 566.355 60.8648 565.013 62.6135C563.671 64.3215 562.268 66.5988 560.804 69.4455C559.34 72.2921 557.916 75.4438 556.534 78.9005ZM573.401 102.507C570.921 102.507 569.05 101.816 567.789 100.433C566.569 99.0915 565.959 97.4241 565.959 95.4315C565.959 93.6015 566.407 91.6698 567.301 89.6365C568.237 87.6031 569.457 85.6918 570.961 83.9025C572.507 82.1131 574.194 80.6695 576.024 79.5715C577.854 78.4328 579.664 77.8635 581.453 77.8635C582.389 77.8635 583.243 78.1075 584.015 78.5955C584.829 79.0835 585.235 80.0798 585.235 81.5845C585.235 83.1298 584.768 84.5938 583.832 85.9765C582.938 87.3185 581.738 88.5181 580.233 89.5755C578.769 90.6328 577.143 91.5071 575.353 92.1985C573.605 92.8491 571.856 93.2558 570.107 93.4185C570.026 93.8251 569.965 94.2115 569.924 94.5775C569.884 94.9435 569.863 95.2891 569.863 95.6145C569.863 96.2245 569.924 96.8345 570.046 97.4445C570.209 98.0545 570.473 98.6238 570.839 99.1525C571.205 99.6405 571.693 100.027 572.303 100.311C572.954 100.596 573.747 100.738 574.682 100.738C576.431 100.738 578.159 100.25 579.867 99.2745C581.575 98.2578 583.161 96.9361 584.625 95.3095C586.089 93.6828 587.33 91.8935 588.346 89.9415L589.078 90.4905C587.98 92.9305 586.577 95.0451 584.869 96.8345C583.202 98.6238 581.372 100.006 579.379 100.982C577.427 101.999 575.435 102.507 573.401 102.507ZM570.412 92.2595C571.51 91.8935 572.751 91.3648 574.133 90.6735C575.516 89.9415 576.838 89.0875 578.098 88.1115C579.4 87.1355 580.457 86.0578 581.27 84.8785C582.124 83.6991 582.551 82.4588 582.551 81.1575C582.551 80.7101 582.47 80.3645 582.307 80.1205C582.145 79.8765 581.799 79.7545 581.27 79.7545C580.294 79.7545 579.257 80.1408 578.159 80.9135C577.061 81.6455 576.004 82.6215 574.987 83.8415C573.971 85.0615 573.056 86.4035 572.242 87.8675C571.429 89.3315 570.819 90.7955 570.412 92.2595ZM582.856 74.3255C582.572 74.1628 582.348 73.8985 582.185 73.5325C582.063 73.1665 582.002 72.9021 582.002 72.7395C582.002 72.3735 582.206 71.8041 582.612 71.0315C583.06 70.2181 583.609 69.3845 584.259 68.5305C584.91 67.6358 585.601 66.8835 586.333 66.2735C587.065 65.6635 587.736 65.3585 588.346 65.3585C588.672 65.3585 588.956 65.5008 589.2 65.7855C589.485 66.0295 589.648 66.5175 589.688 67.2495C588.224 68.5101 586.943 69.7098 585.845 70.8485C584.747 71.9871 583.751 73.1461 582.856 74.3255Z" fill="#663300"/>
<path d="M275.507 138.006H273.141L273.315 125.199H275.333L275.507 138.006ZM274.324 120.049C274.753 120.049 275.122 120.202 275.429 120.51C275.736 120.817 275.89 121.185 275.89 121.615C275.89 122.044 275.736 122.412 275.429 122.719C275.122 123.027 274.753 123.181 274.324 123.181C273.895 123.181 273.527 123.027 273.219 122.719C272.912 122.412 272.758 122.044 272.758 121.615C272.758 121.325 272.828 121.064 272.967 120.832C273.112 120.594 273.303 120.405 273.541 120.266C273.779 120.121 274.04 120.049 274.324 120.049ZM296.525 120.118C296.421 119.236 295.997 118.552 295.255 118.065C294.512 117.578 293.602 117.334 292.523 117.334C291.734 117.334 291.044 117.462 290.452 117.717C289.866 117.972 289.408 118.323 289.078 118.77C288.753 119.216 288.59 119.724 288.59 120.292C288.59 120.768 288.703 121.177 288.93 121.519C289.162 121.855 289.458 122.137 289.817 122.363C290.177 122.583 290.554 122.766 290.948 122.911C291.343 123.05 291.705 123.163 292.036 123.25L293.845 123.737C294.309 123.859 294.826 124.027 295.394 124.242C295.968 124.457 296.516 124.75 297.038 125.121C297.566 125.486 298.001 125.956 298.343 126.53C298.686 127.104 298.857 127.809 298.857 128.644C298.857 129.607 298.604 130.477 298.1 131.254C297.601 132.032 296.87 132.649 295.907 133.108C294.95 133.566 293.787 133.795 292.419 133.795C291.142 133.795 290.038 133.589 289.104 133.177C288.176 132.765 287.445 132.191 286.911 131.455C286.383 130.718 286.085 129.862 286.015 128.888H288.242C288.3 129.561 288.527 130.118 288.921 130.558C289.321 130.993 289.826 131.318 290.435 131.533C291.05 131.742 291.711 131.846 292.419 131.846C293.242 131.846 293.982 131.713 294.637 131.446C295.292 131.173 295.812 130.796 296.194 130.315C296.577 129.828 296.769 129.259 296.769 128.61C296.769 128.018 296.603 127.537 296.273 127.165C295.942 126.794 295.507 126.493 294.968 126.261C294.428 126.029 293.845 125.826 293.219 125.651L291.026 125.025C289.634 124.625 288.532 124.054 287.72 123.311C286.908 122.569 286.502 121.597 286.502 120.397C286.502 119.399 286.772 118.529 287.311 117.786C287.857 117.038 288.587 116.458 289.504 116.046C290.426 115.629 291.456 115.42 292.593 115.42C293.741 115.42 294.762 115.626 295.655 116.038C296.548 116.444 297.256 117.001 297.778 117.708C298.306 118.416 298.584 119.219 298.613 120.118H296.525ZM306.058 133.795C305.212 133.795 304.443 133.635 303.753 133.316C303.063 132.992 302.514 132.525 302.108 131.916C301.702 131.301 301.499 130.558 301.499 129.688C301.499 128.923 301.65 128.302 301.952 127.827C302.253 127.345 302.657 126.968 303.161 126.696C303.666 126.423 304.223 126.22 304.832 126.087C305.446 125.947 306.064 125.837 306.685 125.756C307.497 125.651 308.155 125.573 308.66 125.521C309.17 125.463 309.541 125.367 309.773 125.234C310.011 125.1 310.13 124.868 310.13 124.538V124.468C310.13 123.61 309.895 122.943 309.425 122.467C308.961 121.992 308.257 121.754 307.311 121.754C306.331 121.754 305.562 121.968 305.006 122.398C304.449 122.827 304.057 123.285 303.831 123.772L301.882 123.076C302.23 122.264 302.694 121.632 303.274 121.18C303.86 120.721 304.498 120.402 305.188 120.223C305.884 120.037 306.569 119.944 307.242 119.944C307.671 119.944 308.164 119.996 308.721 120.101C309.283 120.199 309.826 120.405 310.348 120.718C310.875 121.032 311.313 121.504 311.661 122.137C312.009 122.769 312.183 123.616 312.183 124.677V133.482H310.13V131.672H310.026C309.886 131.962 309.654 132.272 309.33 132.603C309.005 132.934 308.573 133.215 308.033 133.447C307.494 133.679 306.836 133.795 306.058 133.795ZM306.372 131.951C307.184 131.951 307.868 131.791 308.425 131.472C308.987 131.153 309.411 130.741 309.695 130.237C309.985 129.732 310.13 129.201 310.13 128.644V126.765C310.043 126.87 309.852 126.965 309.556 127.052C309.266 127.133 308.929 127.206 308.547 127.27C308.17 127.328 307.801 127.38 307.442 127.426C307.088 127.467 306.801 127.502 306.58 127.531C306.047 127.6 305.548 127.713 305.084 127.87C304.626 128.021 304.255 128.25 303.97 128.557C303.692 128.859 303.553 129.271 303.553 129.793C303.553 130.506 303.817 131.046 304.344 131.411C304.878 131.771 305.554 131.951 306.372 131.951ZM316.209 133.482V115.664H318.263V122.241H318.437C318.588 122.009 318.796 121.713 319.063 121.354C319.336 120.988 319.724 120.663 320.229 120.379C320.739 120.089 321.43 119.944 322.3 119.944C323.425 119.944 324.417 120.225 325.275 120.788C326.134 121.351 326.803 122.148 327.285 123.181C327.766 124.213 328.007 125.431 328.007 126.835C328.007 128.25 327.766 129.477 327.285 130.515C326.803 131.547 326.136 132.348 325.284 132.916C324.431 133.479 323.448 133.76 322.334 133.76C321.476 133.76 320.789 133.618 320.272 133.334C319.756 133.044 319.359 132.716 319.081 132.351C318.802 131.98 318.588 131.672 318.437 131.428H318.193V133.482H316.209ZM318.228 126.8C318.228 127.809 318.376 128.699 318.672 129.471C318.967 130.237 319.4 130.837 319.968 131.272C320.536 131.701 321.232 131.916 322.056 131.916C322.914 131.916 323.631 131.689 324.205 131.237C324.785 130.779 325.22 130.164 325.51 129.393C325.806 128.615 325.954 127.751 325.954 126.8C325.954 125.86 325.809 125.013 325.519 124.259C325.235 123.5 324.802 122.899 324.222 122.458C323.648 122.012 322.926 121.789 322.056 121.789C321.221 121.789 320.519 122 319.951 122.424C319.382 122.841 318.953 123.427 318.663 124.181C318.373 124.929 318.228 125.802 318.228 126.8ZM336.577 133.76C335.37 133.76 334.312 133.473 333.401 132.899C332.496 132.325 331.789 131.521 331.278 130.489C330.774 129.456 330.521 128.25 330.521 126.87C330.521 125.477 330.774 124.262 331.278 123.224C331.789 122.186 332.496 121.38 333.401 120.805C334.312 120.231 335.37 119.944 336.577 119.944C337.783 119.944 338.839 120.231 339.744 120.805C340.654 121.38 341.362 122.186 341.867 123.224C342.377 124.262 342.632 125.477 342.632 126.87C342.632 128.25 342.377 129.456 341.867 130.489C341.362 131.521 340.654 132.325 339.744 132.899C338.839 133.473 337.783 133.76 336.577 133.76ZM336.577 131.916C337.493 131.916 338.247 131.681 338.839 131.211C339.43 130.741 339.868 130.123 340.153 129.358C340.437 128.592 340.579 127.763 340.579 126.87C340.579 125.976 340.437 125.144 340.153 124.373C339.868 123.601 339.43 122.978 338.839 122.502C338.247 122.026 337.493 121.789 336.577 121.789C335.66 121.789 334.906 122.026 334.315 122.502C333.723 122.978 333.285 123.601 333.001 124.373C332.717 125.144 332.575 125.976 332.575 126.87C332.575 127.763 332.717 128.592 333.001 129.358C333.285 130.123 333.723 130.741 334.315 131.211C334.906 131.681 335.66 131.916 336.577 131.916ZM345.766 133.482V120.118H347.75V122.137H347.889C348.133 121.475 348.574 120.939 349.212 120.527C349.85 120.115 350.569 119.909 351.369 119.909C351.52 119.909 351.709 119.912 351.935 119.918C352.161 119.924 352.332 119.933 352.448 119.944V122.032C352.379 122.015 352.219 121.989 351.97 121.954C351.726 121.913 351.468 121.893 351.195 121.893C350.546 121.893 349.966 122.029 349.455 122.302C348.951 122.569 348.551 122.94 348.255 123.416C347.965 123.885 347.82 124.422 347.82 125.025V133.482H345.766ZM360.078 133.76C358.791 133.76 357.68 133.476 356.746 132.908C355.818 132.333 355.102 131.533 354.597 130.506C354.098 129.474 353.849 128.273 353.849 126.904C353.849 125.535 354.098 124.329 354.597 123.285C355.102 122.235 355.804 121.417 356.703 120.832C357.608 120.24 358.663 119.944 359.87 119.944C360.566 119.944 361.253 120.06 361.932 120.292C362.61 120.524 363.228 120.901 363.785 121.423C364.342 121.939 364.785 122.624 365.116 123.476C365.447 124.329 365.612 125.379 365.612 126.626V127.496H355.311V125.721H363.524C363.524 124.967 363.373 124.294 363.071 123.703C362.776 123.111 362.352 122.644 361.801 122.302C361.256 121.96 360.612 121.789 359.87 121.789C359.052 121.789 358.344 121.992 357.747 122.398C357.155 122.798 356.7 123.32 356.381 123.964C356.062 124.607 355.902 125.298 355.902 126.034V127.218C355.902 128.227 356.076 129.082 356.424 129.784C356.778 130.48 357.268 131.011 357.895 131.376C358.521 131.736 359.249 131.916 360.078 131.916C360.618 131.916 361.105 131.84 361.54 131.689C361.981 131.533 362.361 131.301 362.68 130.993C362.999 130.68 363.245 130.292 363.419 129.828L365.403 130.384C365.194 131.057 364.843 131.649 364.35 132.159C363.857 132.664 363.248 133.058 362.523 133.343C361.798 133.621 360.983 133.76 360.078 133.76ZM372.668 133.795C371.821 133.795 371.052 133.635 370.362 133.316C369.672 132.992 369.124 132.525 368.718 131.916C368.312 131.301 368.109 130.558 368.109 129.688C368.109 128.923 368.26 128.302 368.561 127.827C368.863 127.345 369.266 126.968 369.771 126.696C370.275 126.423 370.832 126.22 371.441 126.087C372.056 125.947 372.674 125.837 373.294 125.756C374.106 125.651 374.765 125.573 375.269 125.521C375.78 125.463 376.151 125.367 376.383 125.234C376.621 125.1 376.739 124.868 376.739 124.538V124.468C376.739 123.61 376.505 122.943 376.035 122.467C375.571 121.992 374.866 121.754 373.921 121.754C372.94 121.754 372.172 121.968 371.615 122.398C371.058 122.827 370.667 123.285 370.44 123.772L368.492 123.076C368.84 122.264 369.304 121.632 369.884 121.18C370.469 120.721 371.107 120.402 371.798 120.223C372.494 120.037 373.178 119.944 373.851 119.944C374.28 119.944 374.773 119.996 375.33 120.101C375.893 120.199 376.435 120.405 376.957 120.718C377.485 121.032 377.923 121.504 378.271 122.137C378.619 122.769 378.793 123.616 378.793 124.677V133.482H376.739V131.672H376.635C376.496 131.962 376.264 132.272 375.939 132.603C375.614 132.934 375.182 133.215 374.643 133.447C374.103 133.679 373.445 133.795 372.668 133.795ZM372.981 131.951C373.793 131.951 374.477 131.791 375.034 131.472C375.597 131.153 376.02 130.741 376.304 130.237C376.594 129.732 376.739 129.201 376.739 128.644V126.765C376.652 126.87 376.461 126.965 376.165 127.052C375.875 127.133 375.539 127.206 375.156 127.27C374.779 127.328 374.411 127.38 374.051 127.426C373.697 127.467 373.41 127.502 373.19 127.531C372.656 127.6 372.157 127.713 371.693 127.87C371.235 128.021 370.864 128.25 370.58 128.557C370.301 128.859 370.162 129.271 370.162 129.793C370.162 130.506 370.426 131.046 370.954 131.411C371.487 131.771 372.163 131.951 372.981 131.951ZM395.034 133.76C393.746 133.76 392.636 133.476 391.702 132.908C390.774 132.333 390.057 131.533 389.553 130.506C389.054 129.474 388.805 128.273 388.805 126.904C388.805 125.535 389.054 124.329 389.553 123.285C390.057 122.235 390.759 121.417 391.658 120.832C392.563 120.24 393.619 119.944 394.825 119.944C395.521 119.944 396.209 120.06 396.887 120.292C397.566 120.524 398.184 120.901 398.74 121.423C399.297 121.939 399.741 122.624 400.071 123.476C400.402 124.329 400.567 125.379 400.567 126.626V127.496H390.266V125.721H398.479C398.479 124.967 398.329 124.294 398.027 123.703C397.731 123.111 397.308 122.644 396.757 122.302C396.211 121.96 395.568 121.789 394.825 121.789C394.007 121.789 393.3 121.992 392.702 122.398C392.111 122.798 391.655 123.32 391.336 123.964C391.017 124.607 390.858 125.298 390.858 126.034V127.218C390.858 128.227 391.032 129.082 391.38 129.784C391.734 130.48 392.224 131.011 392.85 131.376C393.477 131.736 394.205 131.916 395.034 131.916C395.573 131.916 396.061 131.84 396.496 131.689C396.936 131.533 397.316 131.301 397.635 130.993C397.954 130.68 398.201 130.292 398.375 129.828L400.359 130.384C400.15 131.057 399.799 131.649 399.306 132.159C398.813 132.664 398.204 133.058 397.479 133.343C396.754 133.621 395.939 133.76 395.034 133.76ZM405.744 115.664V133.482H403.691V115.664H405.744ZM420.328 133.795C419.481 133.795 418.713 133.635 418.022 133.316C417.332 132.992 416.784 132.525 416.378 131.916C415.972 131.301 415.769 130.558 415.769 129.688C415.769 128.923 415.92 128.302 416.221 127.827C416.523 127.345 416.926 126.968 417.431 126.696C417.935 126.423 418.492 126.22 419.101 126.087C419.716 125.947 420.334 125.837 420.954 125.756C421.766 125.651 422.425 125.573 422.929 125.521C423.44 125.463 423.811 125.367 424.043 125.234C424.281 125.1 424.4 124.868 424.4 124.538V124.468C424.4 123.61 424.165 122.943 423.695 122.467C423.231 121.992 422.526 121.754 421.581 121.754C420.601 121.754 419.832 121.968 419.275 122.398C418.718 122.827 418.327 123.285 418.101 123.772L416.152 123.076C416.5 122.264 416.964 121.632 417.544 121.18C418.13 120.721 418.768 120.402 419.458 120.223C420.154 120.037 420.838 119.944 421.511 119.944C421.94 119.944 422.433 119.996 422.99 120.101C423.553 120.199 424.095 120.405 424.617 120.718C425.145 121.032 425.583 121.504 425.931 122.137C426.279 122.769 426.453 123.616 426.453 124.677V133.482H424.4V131.672H424.295C424.156 131.962 423.924 132.272 423.599 132.603C423.274 132.934 422.842 133.215 422.303 133.447C421.763 133.679 421.105 133.795 420.328 133.795ZM420.641 131.951C421.453 131.951 422.138 131.791 422.694 131.472C423.257 131.153 423.68 130.741 423.965 130.237C424.255 129.732 424.4 129.201 424.4 128.644V126.765C424.313 126.87 424.121 126.965 423.825 127.052C423.535 127.133 423.199 127.206 422.816 127.27C422.439 127.328 422.071 127.38 421.711 127.426C421.357 127.467 421.07 127.502 420.85 127.531C420.316 127.6 419.817 127.713 419.353 127.87C418.895 128.021 418.524 128.25 418.24 128.557C417.961 128.859 417.822 129.271 417.822 129.793C417.822 130.506 418.086 131.046 418.614 131.411C419.148 131.771 419.823 131.951 420.641 131.951ZM430.201 138.493V120.118H432.184V122.241H432.428C432.579 122.009 432.787 121.713 433.054 121.354C433.327 120.988 433.715 120.663 434.22 120.379C434.73 120.089 435.421 119.944 436.291 119.944C437.416 119.944 438.408 120.225 439.266 120.788C440.125 121.351 440.795 122.148 441.276 123.181C441.757 124.213 441.998 125.431 441.998 126.835C441.998 128.25 441.757 129.477 441.276 130.515C440.795 131.547 440.128 132.348 439.275 132.916C438.422 133.479 437.439 133.76 436.326 133.76C435.467 133.76 434.78 133.618 434.264 133.334C433.747 133.044 433.35 132.716 433.072 132.351C432.793 131.98 432.579 131.672 432.428 131.428H432.254V138.493H430.201ZM432.219 126.8C432.219 127.809 432.367 128.699 432.663 129.471C432.959 130.237 433.391 130.837 433.959 131.272C434.527 131.701 435.224 131.916 436.047 131.916C436.906 131.916 437.622 131.689 438.196 131.237C438.776 130.779 439.211 130.164 439.501 129.393C439.797 128.615 439.945 127.751 439.945 126.8C439.945 125.86 439.8 125.013 439.51 124.259C439.226 123.5 438.794 122.899 438.214 122.458C437.639 122.012 436.917 121.789 436.047 121.789C435.212 121.789 434.51 122 433.942 122.424C433.373 122.841 432.944 123.427 432.654 124.181C432.364 124.929 432.219 125.802 432.219 126.8ZM445.13 133.482V120.118H447.114V122.137H447.253C447.497 121.475 447.938 120.939 448.576 120.527C449.214 120.115 449.933 119.909 450.733 119.909C450.884 119.909 451.073 119.912 451.299 119.918C451.525 119.924 451.696 119.933 451.812 119.944V122.032C451.742 122.015 451.583 121.989 451.334 121.954C451.09 121.913 450.832 121.893 450.559 121.893C449.91 121.893 449.33 122.029 448.819 122.302C448.315 122.569 447.914 122.94 447.619 123.416C447.329 123.885 447.184 124.422 447.184 125.025V133.482H445.13ZM459.442 133.76C458.155 133.76 457.044 133.476 456.11 132.908C455.182 132.333 454.466 131.533 453.961 130.506C453.462 129.474 453.213 128.273 453.213 126.904C453.213 125.535 453.462 124.329 453.961 123.285C454.466 122.235 455.167 121.417 456.066 120.832C456.971 120.24 458.027 119.944 459.233 119.944C459.929 119.944 460.617 120.06 461.295 120.292C461.974 120.524 462.592 120.901 463.149 121.423C463.705 121.939 464.149 122.624 464.48 123.476C464.81 124.329 464.976 125.379 464.976 126.626V127.496H454.674V125.721H462.888C462.888 124.967 462.737 124.294 462.435 123.703C462.139 123.111 461.716 122.644 461.165 122.302C460.62 121.96 459.976 121.789 459.233 121.789C458.416 121.789 457.708 121.992 457.111 122.398C456.519 122.798 456.064 123.32 455.745 123.964C455.426 124.607 455.266 125.298 455.266 126.034V127.218C455.266 128.227 455.44 129.082 455.788 129.784C456.142 130.48 456.632 131.011 457.258 131.376C457.885 131.736 458.613 131.916 459.442 131.916C459.982 131.916 460.469 131.84 460.904 131.689C461.345 131.533 461.725 131.301 462.044 130.993C462.363 130.68 462.609 130.292 462.783 129.828L464.767 130.384C464.558 131.057 464.207 131.649 463.714 132.159C463.221 132.664 462.612 133.058 461.887 133.343C461.162 133.621 460.347 133.76 459.442 133.76ZM470.152 125.443V133.482H468.099V120.118H470.083V122.206H470.257C470.57 121.528 471.045 120.982 471.684 120.571C472.322 120.153 473.145 119.944 474.154 119.944C475.059 119.944 475.851 120.13 476.53 120.501C477.208 120.866 477.736 121.423 478.113 122.171C478.49 122.914 478.679 123.853 478.679 124.99V133.482H476.625V125.129C476.625 124.08 476.353 123.262 475.807 122.676C475.262 122.084 474.514 121.789 473.563 121.789C472.907 121.789 472.322 121.931 471.805 122.215C471.295 122.499 470.892 122.914 470.596 123.459C470.3 124.004 470.152 124.665 470.152 125.443ZM487.477 133.76C486.363 133.76 485.38 133.479 484.527 132.916C483.675 132.348 483.008 131.547 482.526 130.515C482.045 129.477 481.804 128.25 481.804 126.835C481.804 125.431 482.045 124.213 482.526 123.181C483.008 122.148 483.678 121.351 484.536 120.788C485.394 120.225 486.386 119.944 487.511 119.944C488.382 119.944 489.069 120.089 489.573 120.379C490.084 120.663 490.472 120.988 490.739 121.354C491.012 121.713 491.224 122.009 491.374 122.241H491.548V115.664H493.602V133.482H491.618V131.428H491.374C491.224 131.672 491.009 131.98 490.731 132.351C490.452 132.716 490.055 133.044 489.539 133.334C489.022 133.618 488.335 133.76 487.477 133.76ZM487.755 131.916C488.579 131.916 489.275 131.701 489.843 131.272C490.412 130.837 490.844 130.237 491.14 129.471C491.435 128.699 491.583 127.809 491.583 126.8C491.583 125.802 491.438 124.929 491.148 124.181C490.858 123.427 490.429 122.841 489.861 122.424C489.292 122 488.59 121.789 487.755 121.789C486.885 121.789 486.16 122.012 485.58 122.458C485.006 122.899 484.574 123.5 484.284 124.259C483.999 125.013 483.857 125.86 483.857 126.8C483.857 127.751 484.002 128.615 484.292 129.393C484.588 130.164 485.023 130.779 485.597 131.237C486.177 131.689 486.897 131.916 487.755 131.916ZM497.647 133.482V120.118H499.701V133.482H497.647ZM498.691 117.891C498.291 117.891 497.946 117.755 497.656 117.482C497.372 117.209 497.23 116.882 497.23 116.499C497.23 116.116 497.372 115.788 497.656 115.516C497.946 115.243 498.291 115.107 498.691 115.107C499.092 115.107 499.434 115.243 499.718 115.516C500.008 115.788 500.153 116.116 500.153 116.499C500.153 116.882 500.008 117.209 499.718 117.482C499.434 117.755 499.092 117.891 498.691 117.891ZM503.078 133.482V131.916L510.665 122.171V122.032H503.322V120.118H513.31V121.754L505.932 131.428V131.568H513.554V133.482H503.078ZM520.649 133.795C519.802 133.795 519.033 133.635 518.343 133.316C517.653 132.992 517.105 132.525 516.699 131.916C516.293 131.301 516.09 130.558 516.09 129.688C516.09 128.923 516.241 128.302 516.542 127.827C516.844 127.345 517.247 126.968 517.752 126.696C518.256 126.423 518.813 126.22 519.422 126.087C520.037 125.947 520.655 125.837 521.275 125.756C522.087 125.651 522.745 125.573 523.25 125.521C523.761 125.463 524.132 125.367 524.364 125.234C524.602 125.1 524.72 124.868 524.72 124.538V124.468C524.72 123.61 524.486 122.943 524.016 122.467C523.552 121.992 522.847 121.754 521.902 121.754C520.921 121.754 520.153 121.968 519.596 122.398C519.039 122.827 518.648 123.285 518.421 123.772L516.473 123.076C516.821 122.264 517.285 121.632 517.865 121.18C518.45 120.721 519.088 120.402 519.779 120.223C520.475 120.037 521.159 119.944 521.832 119.944C522.261 119.944 522.754 119.996 523.311 120.101C523.874 120.199 524.416 120.405 524.938 120.718C525.466 121.032 525.904 121.504 526.252 122.137C526.6 122.769 526.774 123.616 526.774 124.677V133.482H524.72V131.672H524.616C524.477 131.962 524.245 132.272 523.92 132.603C523.595 132.934 523.163 133.215 522.624 133.447C522.084 133.679 521.426 133.795 520.649 133.795ZM520.962 131.951C521.774 131.951 522.458 131.791 523.015 131.472C523.578 131.153 524.001 130.741 524.285 130.237C524.575 129.732 524.72 129.201 524.72 128.644V126.765C524.633 126.87 524.442 126.965 524.146 127.052C523.856 127.133 523.52 127.206 523.137 127.27C522.76 127.328 522.392 127.38 522.032 127.426C521.678 127.467 521.391 127.502 521.171 127.531C520.637 127.6 520.138 127.713 519.674 127.87C519.216 128.021 518.845 128.25 518.561 128.557C518.282 128.859 518.143 129.271 518.143 129.793C518.143 130.506 518.407 131.046 518.935 131.411C519.468 131.771 520.144 131.951 520.962 131.951ZM530.521 120.118H532.575V134.456C532.575 135.28 532.433 135.993 532.148 136.596C531.87 137.2 531.446 137.667 530.878 137.997C530.315 138.328 529.605 138.493 528.746 138.493C528.677 138.493 528.607 138.493 528.538 138.493C528.468 138.493 528.398 138.493 528.329 138.493V136.579C528.398 136.579 528.462 136.579 528.52 136.579C528.578 136.579 528.642 136.579 528.712 136.579C529.338 136.579 529.796 136.393 530.086 136.022C530.376 135.657 530.521 135.135 530.521 134.456V120.118ZM531.531 117.891C531.13 117.891 530.785 117.755 530.495 117.482C530.211 117.209 530.069 116.882 530.069 116.499C530.069 116.116 530.211 115.788 530.495 115.516C530.785 115.243 531.13 115.107 531.531 115.107C531.931 115.107 532.273 115.243 532.557 115.516C532.847 115.788 532.992 116.116 532.992 116.499C532.992 116.882 532.847 117.209 532.557 117.482C532.273 117.755 531.931 117.891 531.531 117.891ZM541.938 133.76C540.651 133.76 539.54 133.476 538.606 132.908C537.678 132.333 536.962 131.533 536.457 130.506C535.958 129.474 535.709 128.273 535.709 126.904C535.709 125.535 535.958 124.329 536.457 123.285C536.962 122.235 537.664 121.417 538.563 120.832C539.467 120.24 540.523 119.944 541.729 119.944C542.426 119.944 543.113 120.06 543.791 120.292C544.47 120.524 545.088 120.901 545.645 121.423C546.201 121.939 546.645 122.624 546.976 123.476C547.306 124.329 547.472 125.379 547.472 126.626V127.496H537.171V125.721H545.384C545.384 124.967 545.233 124.294 544.931 123.703C544.635 123.111 544.212 122.644 543.661 122.302C543.116 121.96 542.472 121.789 541.729 121.789C540.912 121.789 540.204 121.992 539.607 122.398C539.015 122.798 538.56 123.32 538.241 123.964C537.922 124.607 537.762 125.298 537.762 126.034V127.218C537.762 128.227 537.936 129.082 538.284 129.784C538.638 130.48 539.128 131.011 539.755 131.376C540.381 131.736 541.109 131.916 541.938 131.916C542.478 131.916 542.965 131.84 543.4 131.689C543.841 131.533 544.221 131.301 544.54 130.993C544.859 130.68 545.105 130.292 545.279 129.828L547.263 130.384C547.054 131.057 546.703 131.649 546.21 132.159C545.717 132.664 545.108 133.058 544.383 133.343C543.658 133.621 542.843 133.76 541.938 133.76ZM560.2 115.664L560.026 128.47H558.008L557.834 115.664H560.2ZM559.017 133.621C558.588 133.621 558.219 133.467 557.912 133.16C557.605 132.852 557.451 132.484 557.451 132.055C557.451 131.626 557.605 131.257 557.912 130.95C558.219 130.643 558.588 130.489 559.017 130.489C559.446 130.489 559.814 130.643 560.122 130.95C560.429 131.257 560.583 131.626 560.583 132.055C560.583 132.339 560.511 132.6 560.366 132.838C560.226 133.076 560.038 133.267 559.8 133.412C559.568 133.551 559.307 133.621 559.017 133.621Z" fill="#663300"/>
<path fill-rule="evenodd" clip-rule="evenodd" d="M75.1966 0.187352C40.6122 2.51745 11.3505 26.751 2.54501 60.3297C-0.153092 70.6069 -0.741691 82.7727 0.950709 93.3442C3.08461 106.933 8.89773 120.08 17.5805 131.043C18.6597 132.393 21.4559 135.434 23.8351 137.813C29.3048 143.283 33.9161 146.839 40.2442 150.519C55.9666 159.618 74.2644 163.101 92.5376 160.452C100.828 159.251 109.854 156.307 117.63 152.309C121.113 150.519 122.462 149.513 122.462 148.679C122.462 147.722 121.456 146.643 120.573 146.619C120.279 146.619 118.366 147.502 116.281 148.556C111.915 150.837 108.873 152.138 104.728 153.511C90.4773 158.245 74.6078 158.662 60.2835 154.688C42.4518 149.734 27.22 138.745 16.8692 123.391C15.9862 122.091 15.2994 120.987 15.3485 120.963C15.4466 120.864 21.6276 122.827 37.4726 127.978C50.2026 132.123 54.961 133.619 55.3289 133.619C55.7213 133.619 55.7459 132.442 55.7459 117.676V101.733L51.6743 89.0518C49.4177 82.0613 47.2592 75.2671 46.8423 73.9426C46.4008 72.4955 45.9103 71.4408 45.6651 71.3182C44.8066 70.8521 40.3915 70.5333 36.9821 70.705C23.0013 71.3427 9.97704 74.5559 5.04684 78.5785C4.48274 79.0445 3.99214 79.4124 3.94314 79.4124C3.89404 79.4124 3.94312 77.8916 4.04122 76.0519C5.19402 54.6146 15.79 34.2075 32.8369 20.6436C34.1123 19.6134 35.216 18.8285 35.2406 18.8776C35.2897 18.9021 35.3879 21.2813 35.4369 24.151L35.5594 29.3264L34.7992 29.4736C33.5973 29.7189 31.5859 31.2151 30.5067 32.6132C29.452 34.0358 27.539 37.6905 27.539 38.3282C27.539 38.6716 27.8578 38.7206 29.9181 38.696C33.2048 38.6469 33.1067 38.6225 33.3766 39.4074C33.7445 40.4376 35.1916 41.247 36.4179 41.0754C37.5217 40.9282 38.6991 39.9716 38.9198 39.0395C39.067 38.4508 39.0915 38.4507 42.3783 38.4507H45.6894L44.9292 36.9056C43.2123 33.5208 40.7348 30.7 38.6745 29.768C37.6934 29.351 37.6688 29.3019 37.4972 27.8548C37.4236 27.0209 37.3501 24.2982 37.3501 21.7964L37.3745 17.2342L38.5274 16.4739C40.833 14.9286 44.5858 12.8437 47.7498 11.3475C50.963 9.80216 53.9555 8.62486 54.1272 8.79656C54.1762 8.84566 54.2742 17.3323 54.2987 27.634L54.3968 46.3732L53.4157 46.6675C50.0799 47.6486 46.9158 51.0825 44.9536 55.8409C44.5612 56.8465 44.2179 57.6806 44.2179 57.7296C44.2179 57.7787 45.9347 57.8277 48.0197 57.8277H51.8216V58.4409C51.8216 59.9126 53.2441 61.4088 54.8629 61.6786C56.678 61.9729 58.7384 60.5013 59.0818 58.6862L59.229 57.8277H63.0063C65.0912 57.8277 66.7835 57.7787 66.7835 57.7051C66.7835 57.6315 66.4402 56.8711 66.0232 56.0371C63.9383 51.9164 61.0686 48.507 58.6403 47.2806C57.8064 46.8882 56.997 46.5449 56.8498 46.5449C56.4083 46.5449 56.2367 40.2658 56.2367 23.1208V7.86435L58.395 7.22666C66.2685 4.84756 72.2532 4.03805 81.7946 4.01355C89.1529 3.98895 89.202 3.96445 89.202 2.27205C89.202 0.726753 88.589 0.407963 85.3758 0.162663C82.1136 -0.0581371 78.9985 -0.0579484 75.1966 0.187352ZM38.5028 30.7491C39.7047 31.3132 41.9122 33.5942 42.9178 35.2867C44.3159 37.6658 44.6103 37.4697 39.6557 37.4943C37.2274 37.4943 33.8671 37.5434 32.1501 37.6169C29.2313 37.7396 29.0105 37.715 29.0105 37.2981C29.0105 36.5132 30.8011 33.717 32.1992 32.3189C34.284 30.2095 36.2708 29.719 38.5028 30.7491ZM38.3313 38.8188C38.3313 39.0395 38.0613 39.481 37.718 39.7999C37.2765 40.2659 36.8596 40.413 36.0257 40.413C35.1181 40.413 34.8482 40.2904 34.3086 39.6527C33.9652 39.2357 33.72 38.8187 33.7937 38.696C33.8428 38.5979 34.8973 38.4998 36.1237 38.4753C37.9878 38.4262 38.3313 38.4999 38.3313 38.8188ZM58.2968 48.213C60.4062 49.3658 63.1043 52.5053 64.7967 55.792L65.3119 56.8467H55.5006C50.1045 56.8467 45.6895 56.7731 45.6895 56.6505C45.6895 56.1845 47.7498 52.5298 48.7309 51.2298C50.7422 48.6054 52.6309 47.5752 55.3535 47.5752C56.7515 47.5752 57.3157 47.6979 58.2968 48.213ZM58.4441 58.7844C58.4441 59.5203 57.2668 60.722 56.2855 60.9919C54.7403 61.4334 53.2196 60.7467 52.6554 59.3731C52.4592 58.9315 52.312 58.5147 52.312 58.441C52.312 58.3675 53.6856 58.3184 55.378 58.3184C58.2478 58.3184 58.4441 58.3429 58.4441 58.7844ZM47.5291 86.1574C49.9819 92.9026 51.9686 98.446 51.9441 98.495C51.8705 98.5686 50.7177 98.1762 36.2462 92.8536C32.1992 91.3819 28.1767 89.9103 27.2937 89.5915C26.4107 89.2726 25.1596 88.782 24.4729 88.5368C23.8106 88.2915 19.5183 86.7217 14.9561 85.0539C10.4184 83.386 6.71476 81.9143 6.76376 81.7917C6.93546 81.2766 11.1052 79.1427 13.9994 78.0635C18.8805 76.2484 26.3369 74.605 32.0764 74.0409C33.3028 73.9182 36.2708 73.8447 38.6745 73.8691L43.065 73.8937L47.5291 86.1574ZM10.6147 87.2613C10.9581 87.3594 13.9259 88.4632 17.2372 89.7141C20.5485 90.9405 25.5031 92.7801 28.2747 93.8102C49.1725 101.487 51.9197 102.518 52.214 102.738C52.5329 103.008 52.68 110.219 52.3611 110.416C52.2385 110.489 50.9876 110.121 49.5896 109.582C48.1915 109.067 45.0028 107.889 42.5009 107.006C39.9991 106.099 36.8105 104.946 35.3878 104.431C31.2671 102.91 7.84306 94.4479 7.25436 94.2762C6.86196 94.1536 6.61663 93.7857 6.42043 93.0743C6.05254 91.7253 5.75826 87.948 5.90536 86.6235L6.00344 85.5689L8.01473 86.3292C9.09403 86.7216 10.2713 87.1631 10.6147 87.2613ZM14.5391 99.5498C20.5975 101.757 33.2538 106.368 40.0481 108.846C41.4707 109.361 44.8065 110.587 47.4801 111.568L52.312 113.334V117.381C52.312 121.11 52.2876 121.404 51.8952 121.281C51.5272 121.183 11.0071 106.491 9.85433 106.025C9.60903 105.952 9.38832 105.633 9.31472 105.338C9.24112 105.044 8.82413 103.646 8.43173 102.248C7.99023 100.801 7.67135 99.1082 7.67135 98.3724C7.67135 97.661 7.69596 97.0724 7.74496 97.0724C7.79406 97.0724 10.8354 98.1761 14.5391 99.5498ZM14.2938 109.95C24.4483 113.482 27.269 114.487 31.4633 115.934C34.0877 116.866 39.8027 118.853 44.1687 120.374L52.0667 123.146V127.021V130.896L44.9046 128.444C40.9557 127.07 34.5292 124.863 30.6048 123.514C26.7049 122.164 21.6768 120.448 19.4447 119.712C16.1826 118.608 15.2749 118.216 14.7353 117.602C13.3863 116.106 11.6939 112.28 11.2033 109.68C11.0561 108.846 11.0806 108.772 11.4976 108.944C11.7429 109.042 13.0183 109.508 14.2938 109.95Z" fill="#CC3366"/>
<path fill-rule="evenodd" clip-rule="evenodd" d="M35.9765 76.4691C35.0935 76.8125 34.4067 77.9162 34.4067 78.9709C34.4067 81.0557 36.9085 82.1349 38.5274 80.7614C39.4839 79.9765 39.7047 78.9954 39.2142 77.8426C38.9443 77.2049 38.5765 76.8369 37.9878 76.5916C37.0067 76.1747 36.7124 76.1748 35.9765 76.4691Z" fill="#CC3366"/>
<path fill-rule="evenodd" clip-rule="evenodd" d="M23.7124 79.4124C22.8294 79.7558 22.1426 80.8595 22.1426 81.9142C22.1426 84.0236 24.62 85.1027 26.2633 83.7046C27.6859 82.5273 27.3916 80.2217 25.7237 79.5349C24.7426 79.118 24.4483 79.1181 23.7124 79.4124Z" fill="#CC3366"/>
<path fill-rule="evenodd" clip-rule="evenodd" d="M37.7179 83.7783C35.167 84.6122 34.8973 87.9725 37.301 89.1254C39.8273 90.3272 42.4763 87.1386 40.7594 84.9557C39.8764 83.8519 38.8217 83.4349 37.7179 83.7783Z" fill="#CC3366"/>
<path fill-rule="evenodd" clip-rule="evenodd" d="M100.387 15.8852C96.1189 16.4003 92.5869 18.0437 89.6926 20.9134C87.2152 23.3662 85.9153 25.819 85.1549 29.4982C84.6889 31.7302 84.6643 32.1962 84.9096 34.9434C85.2776 38.8433 85.9153 41.2225 87.2888 44.0432C90.7227 51.0582 97.8357 53.462 105.587 50.2488C112.234 47.4526 117.017 40.7074 116.085 35.4585C115.717 33.4472 115.226 32.2453 113.975 30.3567C112.086 27.4869 110.443 25.9908 107.598 24.6662C104.483 23.1946 100.902 23.4889 98.0565 25.4511C96.1924 26.7511 94.5491 29.302 94.034 31.7794C93.6416 33.6189 93.6906 34.5019 94.2547 36.317C94.8434 38.1811 96.3396 40.0451 98.1547 41.0999C99.1113 41.664 99.5528 41.7621 101.123 41.7621C102.643 41.7621 103.232 41.6395 104.385 41.0508C106.421 40.0697 107.132 38.9169 107.132 36.6359C107.132 34.551 106.273 32.4907 105.366 32.368C104.483 32.2454 104.287 33.0058 104.802 34.5265C105.881 37.617 104.973 39.3094 101.956 39.7999C100.362 40.0452 99.0132 39.5547 97.6641 38.2056C94.8189 35.3604 95.2604 30.651 98.6452 27.585C100.141 26.2605 101.638 25.6964 103.722 25.6964C107.941 25.6964 113.239 30.6755 114.122 35.5075C115.152 40.9771 109.168 47.7469 101.932 49.3412C93.666 51.1563 88.1718 46.03 86.8963 35.2623C85.719 25.2304 92.3906 17.8475 102.717 17.7984C106.911 17.7739 109.952 18.4852 113.435 20.3739C120.696 24.2247 124.179 31.1907 122.83 39.0641C121.996 43.9697 120.303 47.6734 115.986 54.1243C112.381 59.5204 111.645 60.8449 110.688 63.6656C110.149 65.309 109.879 66.609 109.781 68.3505L109.634 70.7542L102.619 70.9258C98.7679 71.0239 94.5735 71.1957 93.3226 71.2693C92.0962 71.3674 91.0661 71.3918 91.0661 71.3673C91.0661 71.3182 91.6301 70.7542 92.3414 70.141C95.7017 67.124 97.1488 62.7335 96.0941 58.7354C95.5054 56.4788 94.5489 54.8845 92.6848 53.045C89.5943 49.979 86.0624 48.6055 81.8681 48.8263C78.7285 48.9979 76.5454 49.7583 75.0983 51.2054C71.1002 55.2035 72.4002 63.7391 77.4284 66.3637C78.5076 66.9277 78.9737 67.0259 80.7642 67.0259C82.3586 67.0259 83.1189 66.9033 83.9774 66.5109C85.5717 65.7751 86.8473 64.3769 87.2642 62.8806C88.1718 59.7166 86.1114 57.3373 82.4813 57.3373C80.7398 57.3373 80.1265 57.5827 80.3472 58.1469C80.4453 58.4167 80.985 58.5393 82.4567 58.5884C84.7623 58.711 85.6207 59.1771 86.1113 60.6487C86.5528 61.9732 86.1605 63.1996 84.8604 64.3769C82.3831 66.658 78.287 66.3637 76.0304 63.7147C74.6568 62.0958 74.019 60.0845 74.0435 57.4601C74.0926 52.6281 76.4718 50.3714 81.8679 50.0526C89.2508 49.6111 95.7261 55.5468 95.1621 62.2184C94.8922 65.3335 93.2244 68.0561 90.0112 70.5089L88.5396 71.6617L85.0811 72.0786C72.7926 73.5748 65.9985 75.8559 65.091 78.7502C64.4042 80.9577 64.1344 88.0464 64.6004 92.4369C65.8022 104.21 70.389 113.923 78.4586 121.895C84.8358 128.149 92.1941 132.319 100.754 134.478C105.317 135.63 108.309 135.925 113.779 135.753C118.684 135.606 121.211 135.213 125.233 133.962C129.182 132.712 134.627 129.817 137.473 127.438L138.601 126.506L139.925 127.07C142.697 128.296 145.199 128.812 148.338 128.812C151.846 128.812 153.587 128.419 156.555 126.947C158.199 126.114 159.106 125.427 160.872 123.685C162.761 121.821 163.276 121.134 164.233 119.148C165.68 116.204 166.195 114.218 166.195 111.421C166.195 105.265 162.957 100.58 156.85 97.9065C154.667 96.9744 154.765 97.2933 155.403 93.0254C155.967 89.3218 156.31 84.9803 156.31 81.5955C156.31 78.971 156.261 78.7256 155.77 78.2596C155.01 77.5482 152.999 76.3956 151.601 75.8805C150.963 75.6352 150.399 75.2918 150.325 75.0956C150.105 74.5315 147.946 73.3051 146.254 72.7654C145.371 72.4956 142.575 71.8824 140.024 71.4164C134.161 70.3617 131.856 69.7485 129.697 68.7183C126.803 67.3447 125.528 65.8485 124.448 62.6599C123.443 59.7166 123.099 57.3127 123.271 54.3449C123.492 50.0034 124.718 46.8149 127.171 44.1904C129.55 41.6395 132.567 40.4131 136.443 40.3886C139.827 40.3886 142.427 41.4923 145.224 44.1904C148.388 47.2074 150.08 51.0582 149.884 54.7129C149.737 57.1657 149.05 58.6864 147.358 60.2562C145.567 61.9241 144.341 62.3655 141.593 62.3655C137.89 62.3655 134.873 61.0657 133.475 58.8336C132.862 57.877 132.763 57.5091 132.763 55.8903C132.788 52.7752 134.088 50.8866 136.467 50.5677C138.92 50.2243 140.293 51.6469 140.024 54.1733C139.926 55.277 139.975 55.5958 140.244 55.7184C140.833 55.9392 141.348 54.8846 141.348 53.5356C141.324 49.5866 136.786 47.8451 133.573 50.5923C132.052 51.8922 131.463 53.4866 131.586 56.111C131.66 57.9506 131.758 58.392 132.395 59.4222C133.278 60.8693 135.486 62.4391 137.546 63.1014C138.626 63.4693 139.705 63.592 141.593 63.592C143.874 63.592 144.316 63.5185 145.591 62.9298C147.431 62.0714 149.516 60.06 150.35 58.3431C150.988 57.0921 151.037 56.7243 151.037 54.1489C151.037 51.8433 150.939 51.0583 150.473 49.881C148.731 45.2207 144.463 41.0019 140.097 39.653C139.116 39.3341 137.89 39.1869 136.492 39.1869C132.273 39.1869 129.305 40.3887 126.484 43.2094C123.664 46.0301 122.339 49.3415 122.045 54.198C121.898 57.0432 122.192 59.545 123.001 62.243C124.915 68.4976 128.201 70.6316 138.822 72.4467C140.22 72.692 141.299 72.9128 141.25 72.9618C141.201 73.0109 139.631 72.8391 137.767 72.5694C131.684 71.6618 122.437 70.9505 114.122 70.7542L111.792 70.7052L111.817 68.6203C111.841 66.2902 112.479 63.8129 113.656 61.4828C114.049 60.6979 115.618 58.2206 117.139 55.9394C120.573 50.8622 121.382 49.4641 122.56 46.7415C123.86 43.6755 124.62 40.9037 124.964 37.9359C125.479 33.3982 124.448 29.155 121.971 25.3777C118.537 20.1288 112.356 16.6458 105.292 15.8854C102.717 15.6156 102.668 15.6154 100.387 15.8852ZM142.403 73.2068C142.231 73.2559 141.937 73.2559 141.79 73.2068C141.618 73.1332 141.741 73.0842 142.084 73.0842C142.428 73.0842 142.55 73.1332 142.403 73.2068ZM122.118 73.5257C136.982 74.3597 147.309 76.2238 152.484 78.9954L153.931 79.7802L153.759 83.8274C153.612 87.85 153.122 92.7555 152.607 95.1348C152.337 96.3121 152.312 96.3612 151.576 96.2876C150.669 96.2141 150.718 96.6064 151.037 91.1367L151.233 87.752L149.173 89.15C142.575 93.565 133.475 96.3857 121.849 97.5876C117.385 98.0537 105.783 97.9801 100.755 97.465C88.3436 96.1896 78.1155 93.7121 72.7194 90.6216C70.8798 89.5914 69.2365 88.0462 69.2365 87.3839C69.2365 87.1877 69.1383 87.0161 69.0156 87.0161C68.6722 87.0161 68.427 90.5235 68.5742 93.0009C68.7459 95.5518 69.4818 98.3725 70.4138 100.114C72.9156 104.725 82.9719 108.331 97.934 109.999C103.011 110.563 119.053 110.636 123.934 110.121C127.588 109.729 133.401 108.772 135.928 108.135L137.767 107.668L138.626 108.38C139.779 109.287 142.403 110.44 143.801 110.661C145.052 110.857 146.99 111.667 146.99 111.985C146.99 112.206 144.414 116.621 144.071 117.014C143.973 117.112 143.409 116.94 142.795 116.646C142.182 116.351 141.201 116.106 140.539 116.106C139.239 116.082 139.043 116.253 137.595 118.461C137.203 119.049 136.614 119.908 136.296 120.374C135.731 121.11 135.682 121.404 135.805 122.581C135.878 123.317 136.001 124.274 136.099 124.691C136.246 125.451 136.197 125.5 133.745 127.119C126.533 131.878 118.488 133.889 109.02 133.325C96.5849 132.589 84.1983 125.942 76.1532 115.714C69.1382 106.761 65.8269 94.5462 67.0532 82.2086C67.2004 80.7369 67.4457 79.388 67.5929 79.2163C67.7401 79.0201 68.4758 78.5786 69.2362 78.1861C73.5776 76.0031 83.6096 74.3107 96.7075 73.5503C101.687 73.256 117.139 73.2559 122.118 73.5257ZM144.537 73.5257C145.028 73.6729 145.052 73.7219 144.66 73.7219C144.39 73.7219 143.899 73.6238 143.556 73.5257C143.065 73.3785 143.041 73.3295 143.433 73.3295C143.703 73.3295 144.194 73.4276 144.537 73.5257ZM70.5363 90.1064C73.6759 92.78 83.1192 95.7479 93.5191 97.3177C107.23 99.3781 121.334 99.1573 132.518 96.6555C138.503 95.331 144.66 92.9272 148.682 90.3517L150.473 89.1989L150.326 91.3574C150.228 92.5347 150.105 94.0555 150.031 94.7422L149.884 95.9686L148.143 96.68C142.967 98.7894 137.032 101.365 136.884 101.561C136.811 101.708 136.664 102.37 136.59 103.057C136.467 104.185 136.565 104.897 137.056 106.54C137.203 107.031 137.056 107.104 135.045 107.595C132.469 108.183 127.883 108.919 123.811 109.385C119.175 109.9 103.036 109.827 98.0568 109.263C83.8797 107.668 74.4119 104.504 71.4931 100.408C70.7573 99.3533 69.9479 97.1703 69.5064 94.9138C69.2121 93.5403 69.1383 89.2234 69.3836 89.2234C69.4572 89.2234 69.9966 89.6159 70.5363 90.1064ZM151.846 98.4214C153.907 98.8383 156.531 99.8195 158.027 100.678C159.474 101.536 161.854 103.818 162.589 105.044C167.078 112.721 162.074 123.612 152.754 126.408C150.522 127.07 146.229 127.021 143.703 126.31C141.128 125.574 138.282 124.225 137.939 123.612C137.424 122.63 137.62 121.6 138.528 120.57C139.018 120.055 139.582 119.246 139.803 118.78C140.024 118.313 140.343 117.921 140.514 117.921C140.686 117.921 141.618 118.289 142.624 118.755C144.831 119.761 146.573 120.374 147.309 120.374C148.682 120.349 151.061 118.779 151.797 117.381C153.269 114.585 150.031 110.391 145.395 109.066C140.76 107.742 139.435 107.031 138.797 105.412C138.381 104.333 138.307 103.499 138.601 103.033C138.724 102.861 141.054 101.782 143.801 100.629C146.548 99.476 148.952 98.4214 149.173 98.2988C149.688 97.9799 149.884 98.0045 151.846 98.4214ZM150.105 115.174C150.326 116.082 149.909 116.965 148.952 117.602C147.995 118.264 147.137 118.534 146.622 118.314C146.303 118.191 146.376 117.946 147.088 116.842C147.554 116.106 148.192 115.027 148.486 114.463L149.001 113.408L149.467 113.972C149.737 114.291 150.007 114.831 150.105 115.174Z" fill="#CC3366"/>
<path fill-rule="evenodd" clip-rule="evenodd" d="M99.9207 75.7577C83.9776 76.2728 72.6948 78.0633 70.5363 80.4426C69.9722 81.0557 70.0458 82.7482 70.708 84.1462C71.4684 85.7406 73.7495 87.7518 76.325 89.0763C91.2134 96.7535 127.981 97.0234 143.777 89.5669C147.775 87.6783 150.031 85.7651 151.159 83.3123C151.871 81.718 151.797 80.835 150.939 80.3199C146.818 77.8917 135.339 76.2973 117.924 75.7332C109.879 75.4634 108.726 75.4633 99.9207 75.7577Z" fill="#CC3366"/>
</g>
<defs>
<clipPath id="clip0_67_59">
<rect width="684.346" height="161.316" fill="white"/>
</clipPath>
</defs>
</svg>
