<svg width="300" height="40" viewBox="0 0 420 62" fill="none" xmlns="http://www.w3.org/2000/svg">
<path d="M28.9983 50.1305C27.5343 50.1305 25.9076 49.8255 24.1183 49.2155C22.3696 48.6055 20.5599 47.8531 18.6893 46.9585C16.8186 46.1045 14.9683 45.2708 13.1383 44.4575C12.1216 45.5961 11.0643 46.4705 9.96625 47.0805C8.86825 47.7311 7.66858 48.0565 6.36725 48.0565C5.06592 48.0565 3.96792 47.7515 3.07325 47.1415C2.13792 46.5315 1.44658 45.7995 0.99925 44.9455C0.51125 44.1321 0.26725 43.4001 0.26725 42.7495C0.26725 42.0175 0.612917 41.3871 1.30425 40.8585C1.95492 40.3298 3.09358 40.0655 4.72025 40.0655C5.77758 40.0655 6.93658 40.1875 8.19725 40.4315C9.49858 40.6755 10.8406 40.9805 12.2233 41.3465C13.1993 39.6385 14.0939 37.6458 14.9073 35.3685C15.7613 33.0911 16.5949 30.6715 17.4083 28.1095C18.2216 25.5475 19.0349 22.9855 19.8483 20.4235C17.9776 19.8135 16.4933 18.9188 15.3953 17.7395C14.3379 16.5601 13.8093 15.2791 13.8093 13.8965C13.8093 13.1645 13.9516 12.4325 14.2363 11.7005C14.5616 10.9685 15.0089 10.3585 15.5783 9.87045C16.1476 9.34179 16.8186 9.07745 17.5913 9.07745C17.3066 9.48412 17.1033 10.0738 16.9813 10.8465C16.8593 11.6191 16.7983 12.2901 16.7983 12.8595C16.7983 14.4048 17.1236 15.7061 17.7743 16.7635C18.4249 17.7801 19.2586 18.5731 20.2753 19.1425C21.0886 16.7025 21.9223 14.4048 22.7763 12.2495C23.6709 10.0535 24.6469 8.10145 25.7043 6.39345C26.7616 4.68545 27.9206 3.34345 29.1813 2.36745C30.4419 1.39145 31.8449 0.903454 33.3903 0.903454C34.2036 0.903454 35.0576 1.08645 35.9523 1.45245C36.8876 1.81845 37.6806 2.44879 38.3313 3.34346C38.9819 4.23812 39.3073 5.49879 39.3073 7.12545C39.3073 8.50812 39.0226 10.0128 38.4533 11.6395C37.8839 13.2255 37.0096 14.7505 35.8303 16.2145C34.6509 17.6378 33.1463 18.8171 31.3163 19.7525C29.4863 20.6471 27.3309 21.1148 24.8503 21.1555C24.8096 21.1555 24.7079 21.1555 24.5453 21.1555C24.4233 21.1555 24.1386 21.1555 23.6913 21.1555C22.8779 23.6361 22.0036 26.1575 21.0683 28.7195C20.1736 31.2815 19.2179 33.7215 18.2013 36.0395C17.1846 38.3168 16.0866 40.3501 14.9073 42.1395C16.7779 42.7088 18.6689 43.2985 20.5803 43.9085C22.4916 44.4778 24.3419 44.9455 26.1313 45.3115C27.9206 45.7181 29.5676 45.9215 31.0723 45.9215C31.9263 45.9215 32.6989 45.8401 33.3903 45.6775C34.0816 45.5148 34.7526 45.2708 35.4033 44.9455C34.7526 46.8161 33.8783 48.1378 32.7803 48.9105C31.7229 49.7238 30.4623 50.1305 28.9983 50.1305ZM6.12325 46.2875C7.01792 46.2875 7.85158 46.0435 8.62425 45.5555C9.43758 45.0675 10.1696 44.3761 10.8203 43.4815C9.55958 42.9528 8.31925 42.5258 7.09925 42.2005C5.91992 41.8345 4.84225 41.6515 3.86625 41.6515C3.09358 41.6515 2.56492 41.7531 2.28025 41.9565C1.99558 42.1598 1.85325 42.4445 1.85325 42.8105C1.85325 43.5018 2.25992 44.2541 3.07325 45.0675C3.84592 45.8808 4.86258 46.2875 6.12325 46.2875ZM24.0573 19.9965C25.8873 19.9965 27.5343 19.4881 28.9983 18.4715C30.5029 17.4141 31.7636 16.1128 32.7803 14.5675C33.8376 12.9815 34.6306 11.3751 35.1593 9.74845C35.7286 8.12179 36.0133 6.69845 36.0133 5.47845C36.0133 4.29912 35.7896 3.50612 35.3423 3.09945C34.8949 2.65212 34.3866 2.42845 33.8173 2.42845C32.5566 2.42845 31.3773 3.24179 30.2793 4.86845C29.1813 6.49512 28.1239 8.65045 27.1073 11.3345C26.1313 13.9778 25.1146 16.8651 24.0573 19.9965ZM42.4983 47.6905C41.2376 47.6905 40.1803 47.2635 39.3263 46.4095C38.4316 45.5961 37.9843 44.3355 37.9843 42.6275C37.9843 41.1635 38.3096 39.5978 38.9603 37.9305C39.611 36.2225 40.5056 34.5551 41.6443 32.9285C42.783 31.2611 44.064 29.7565 45.4873 28.4145C46.9513 27.0318 48.4763 25.9338 50.0623 25.1205C51.689 24.3071 53.2953 23.9005 54.8813 23.9005C56.4673 23.9005 57.789 24.3275 58.8463 25.1815C59.9036 25.9948 60.4323 27.0928 60.4323 28.4755C60.4323 29.4921 60.1476 30.1835 59.5783 30.5495C59.0496 30.9155 58.338 31.0985 57.4433 31.0985C57.5246 30.7731 57.5856 30.4275 57.6263 30.0615C57.7076 29.6548 57.7483 29.2888 57.7483 28.9635C57.7483 28.0281 57.5246 27.2351 57.0773 26.5845C56.63 25.8931 55.8573 25.5475 54.7593 25.5475C53.6206 25.5475 52.4616 25.9541 51.2823 26.7675C50.103 27.5401 48.9643 28.5975 47.8663 29.9395C46.7683 31.2408 45.7923 32.6641 44.9383 34.2095C44.0843 35.7548 43.4133 37.2798 42.9253 38.7845C42.4373 40.2891 42.1933 41.6311 42.1933 42.8105C42.1933 44.3965 42.7423 45.1895 43.8403 45.1895C44.7756 45.1895 45.7923 44.7625 46.8903 43.9085C47.9883 43.0138 49.1066 41.8955 50.2453 40.5535C51.4246 39.1708 52.543 37.7475 53.6003 36.2835C54.6576 34.8195 55.593 33.4775 56.4063 32.2575C56.569 32.0135 56.6706 31.8915 56.7113 31.8915C56.9553 31.9321 57.2603 32.0135 57.6263 32.1355C58.033 32.2575 58.3786 32.4201 58.6633 32.6235C58.948 32.8268 59.0903 33.0911 59.0903 33.4165C59.0903 33.7825 58.9073 34.2908 58.5413 34.9415C58.1753 35.5515 57.7686 36.2631 57.3213 37.0765C56.874 37.8898 56.4673 38.7235 56.1013 39.5775C55.7353 40.3908 55.5523 41.1635 55.5523 41.8955C55.5523 42.5055 55.715 43.1155 56.0403 43.7255C56.3656 44.2948 56.8943 44.5795 57.6263 44.5795C58.7243 44.5795 60.168 43.7865 61.9573 42.2005C63.7466 40.5738 65.5563 38.1541 67.3863 34.9415L67.9963 35.5515C67.1423 37.7475 66.0443 39.6791 64.7023 41.3465C63.3603 43.0138 61.9166 44.3151 60.3713 45.2505C58.8666 46.1858 57.3823 46.6535 55.9183 46.6535C54.4136 46.6535 53.2953 46.2061 52.5633 45.3115C51.872 44.4168 51.5263 43.4408 51.5263 42.3835C51.5263 42.1395 51.5466 41.8751 51.5873 41.5905C51.628 41.2651 51.6686 40.9398 51.7093 40.6145C49.9606 42.9731 48.3543 44.7421 46.8903 45.9215C45.467 47.1008 44.003 47.6905 42.4983 47.6905ZM93.3914 50.1305C91.5614 50.1305 90.3007 49.7238 89.6094 48.9105C88.918 48.0971 88.5724 47.0601 88.5724 45.7995C88.5724 44.6201 88.8164 43.2171 89.3044 41.5905C89.7924 39.9638 90.3007 38.3981 90.8294 36.8935C91.5207 34.9008 92.3544 32.5625 93.3304 29.8785C94.3064 27.1945 95.3434 24.3885 96.4414 21.4605C97.58 18.5325 98.7187 15.6451 99.8574 12.7985C101.037 9.95179 102.175 7.36945 103.273 5.05146C100.467 5.09212 98.1087 5.15312 96.1974 5.23445C94.3267 5.31579 92.639 5.43779 91.1344 5.60046C89.6297 5.72245 87.9827 5.94612 86.1934 6.27145C86.3154 4.88879 87.027 3.81112 88.3284 3.03845C89.6297 2.26579 91.3784 1.71679 93.5744 1.39146C95.7704 1.06612 98.2714 0.903454 101.077 0.903454C103.883 0.903454 106.384 1.02545 108.58 1.26945C110.817 1.47279 112.911 1.67612 114.863 1.87945C116.815 2.08279 118.767 2.20479 120.719 2.24545C119.337 3.50612 117.751 4.29912 115.961 4.62445C114.172 4.94979 112.281 5.11245 110.288 5.11245C109.841 5.11245 109.373 5.11245 108.885 5.11245C108.397 5.07179 107.909 5.05146 107.421 5.05146C106.933 5.05146 106.445 5.05146 105.957 5.05146C104.656 8.30479 103.151 12.4121 101.443 17.3735C99.776 22.3348 98.0884 27.9265 96.3804 34.1485C95.811 36.3038 95.2824 38.2355 94.7944 39.9435C94.347 41.6515 93.981 43.2171 93.6964 44.6405C93.4524 46.0638 93.3304 47.4465 93.3304 48.7885C93.3304 48.9918 93.3304 49.2155 93.3304 49.4595C93.3304 49.7035 93.3507 49.9271 93.3914 50.1305ZM111.396 46.4095C109.81 46.4095 108.631 45.9011 107.858 44.8845C107.085 43.9085 106.699 42.7088 106.699 41.2855C106.699 40.3501 106.862 39.1708 107.187 37.7475C107.553 36.3241 108.021 34.8398 108.59 33.2945C109.159 31.7085 109.81 30.2241 110.542 28.8415C111.315 27.4588 112.128 26.3405 112.982 25.4865C113.836 24.5918 114.67 24.1445 115.483 24.1445C115.849 24.1445 116.154 24.2665 116.398 24.5105C116.683 24.7138 116.825 25.0391 116.825 25.4865C116.825 25.9745 116.5 26.7675 115.849 27.8655C115.239 28.9635 114.507 30.2241 113.653 31.6475C112.799 33.0708 112.047 34.5755 111.396 36.1615C110.786 37.7068 110.481 39.1911 110.481 40.6145C110.481 42.0785 110.725 43.0545 111.213 43.5425C111.701 44.0305 112.453 44.2745 113.47 44.2745C114.853 44.2745 116.317 43.5831 117.862 42.2005C119.448 40.8178 121.115 38.3981 122.864 34.9415L123.413 35.5515C122.234 39.0488 120.526 41.7328 118.289 43.6035C116.093 45.4741 113.795 46.4095 111.396 46.4095ZM118.716 18.4715C118.065 18.4715 117.476 18.3088 116.947 17.9835C116.459 17.6581 116.215 17.1498 116.215 16.4585C116.215 15.6045 116.703 14.8725 117.679 14.2625C118.696 13.6118 119.692 13.2865 120.668 13.2865C121.278 13.2865 121.766 13.4288 122.132 13.7135C122.498 13.9981 122.681 14.4861 122.681 15.1775C122.681 15.9501 122.254 16.7025 121.4 17.4345C120.587 18.1258 119.692 18.4715 118.716 18.4715ZM128.306 47.5075C125.825 47.5075 123.954 46.8161 122.694 45.4335C121.474 44.0915 120.864 42.4241 120.864 40.4315C120.864 38.6015 121.311 36.6698 122.206 34.6365C123.141 32.6031 124.361 30.6918 125.866 28.9025C127.411 27.1131 129.099 25.6695 130.929 24.5715C132.759 23.4328 134.568 22.8635 136.358 22.8635C137.293 22.8635 138.147 23.1075 138.92 23.5955C139.733 24.0835 140.14 25.0798 140.14 26.5845C140.14 28.1298 139.672 29.5938 138.737 30.9765C137.842 32.3185 136.642 33.5181 135.138 34.5755C133.674 35.6328 132.047 36.5071 130.258 37.1985C128.509 37.8491 126.76 38.2558 125.012 38.4185C124.93 38.8251 124.869 39.2115 124.829 39.5775C124.788 39.9435 124.768 40.2891 124.768 40.6145C124.768 41.2245 124.829 41.8345 124.951 42.4445C125.113 43.0545 125.378 43.6238 125.744 44.1525C126.11 44.6405 126.598 45.0268 127.208 45.3115C127.858 45.5961 128.651 45.7385 129.587 45.7385C131.335 45.7385 133.064 45.2505 134.772 44.2745C136.48 43.2578 138.066 41.9361 139.53 40.3095C140.994 38.6828 142.234 36.8935 143.251 34.9415L143.983 35.4905C142.885 37.9305 141.482 40.0451 139.774 41.8345C138.106 43.6238 136.276 45.0065 134.284 45.9825C132.332 46.9991 130.339 47.5075 128.306 47.5075ZM125.317 37.2595C126.415 36.8935 127.655 36.3648 129.038 35.6735C130.42 34.9415 131.742 34.0875 133.003 33.1115C134.304 32.1355 135.361 31.0578 136.175 29.8785C137.029 28.6991 137.456 27.4588 137.456 26.1575C137.456 25.7101 137.374 25.3645 137.212 25.1205C137.049 24.8765 136.703 24.7545 136.175 24.7545C135.199 24.7545 134.162 25.1408 133.064 25.9135C131.966 26.6455 130.908 27.6215 129.892 28.8415C128.875 30.0615 127.96 31.4035 127.147 32.8675C126.333 34.3315 125.723 35.7955 125.317 37.2595ZM161.734 46.0435C160.311 46.0435 159.233 45.6775 158.501 44.9455C157.81 44.2135 157.464 43.2781 157.464 42.1395C157.464 41.2855 157.607 40.3908 157.891 39.4555C158.217 38.5201 158.522 37.5645 158.806 36.5885C159.091 35.5718 159.233 34.5958 159.233 33.6605C159.233 32.5218 158.989 31.7491 158.501 31.3425C158.054 30.8951 157.485 30.6715 156.793 30.6715C155.533 30.6715 154.252 31.2001 152.95 32.2575C151.649 33.2741 150.388 34.5958 149.168 36.2225C147.948 37.8085 146.81 39.4555 145.752 41.1635C144.695 42.8715 143.76 44.3965 142.946 45.7385C142.296 45.7385 141.686 45.6165 141.116 45.3725C140.506 45.1691 140.039 44.8438 139.713 44.3965C139.713 44.1931 139.937 43.5628 140.384 42.5055C140.791 41.4481 141.279 40.1468 141.848 38.6015C142.418 37.0561 142.926 35.4701 143.373 33.8435C143.821 32.2168 144.044 30.7325 144.044 29.3905C144.288 29.1058 144.675 28.8211 145.203 28.5365C145.732 28.2518 146.281 28.1095 146.85 28.1095C147.948 28.1095 148.497 28.6381 148.497 29.6955C148.497 30.3461 148.314 31.4441 147.948 32.9895C147.582 34.4941 147.115 36.0801 146.545 37.7475C147.643 36.0801 148.863 34.4331 150.205 32.8065C151.588 31.1391 153.052 29.7565 154.597 28.6585C156.143 27.5605 157.688 27.0115 159.233 27.0115C160.819 27.0115 161.958 27.5808 162.649 28.7195C163.381 29.8581 163.747 31.1188 163.747 32.5015C163.747 33.7621 163.544 34.9415 163.137 36.0395C162.731 37.0968 162.304 38.1338 161.856 39.1505C161.45 40.1265 161.246 41.1228 161.246 42.1395C161.246 42.9935 161.409 43.6035 161.734 43.9695C162.1 44.2948 162.548 44.4575 163.076 44.4575C164.093 44.4575 165.11 43.9898 166.126 43.0545C167.143 42.0785 168.119 40.8585 169.054 39.3945C170.03 37.9305 170.884 36.4461 171.616 34.9415L172.287 35.7345C171.433 37.7271 170.478 39.4961 169.42 41.0415C168.363 42.5868 167.204 43.8068 165.943 44.7015C164.683 45.5961 163.28 46.0435 161.734 46.0435ZM174.045 46.6535C173.354 46.6535 172.642 46.4705 171.91 46.1045C171.219 45.7791 170.65 45.2301 170.202 44.4575C169.714 43.6848 169.47 42.7088 169.47 41.5295C169.47 40.1875 169.796 38.6828 170.446 37.0155C171.097 35.3481 171.971 33.7011 173.069 32.0745C174.167 30.4071 175.428 28.8821 176.851 27.4995C178.275 26.0761 179.759 24.9578 181.304 24.1445C182.85 23.2905 184.375 22.8635 185.879 22.8635C186.733 22.8635 187.384 23.0261 187.831 23.3515C188.319 23.6361 188.563 24.1038 188.563 24.7545C188.563 24.9171 188.543 25.0595 188.502 25.1815C188.502 25.3035 188.482 25.4458 188.441 25.6085C188.238 25.2831 187.933 25.0595 187.526 24.9375C187.16 24.7748 186.693 24.6935 186.123 24.6935C184.822 24.6935 183.541 25.1001 182.28 25.9135C181.06 26.6861 179.922 27.7231 178.864 29.0245C177.848 30.2851 176.953 31.6475 176.18 33.1115C175.408 34.5755 174.798 35.9988 174.35 37.3815C173.944 38.7235 173.74 39.8621 173.74 40.7975C173.74 41.6921 173.944 42.4038 174.35 42.9325C174.757 43.4611 175.286 43.7255 175.936 43.7255C177.034 43.7255 178.356 43.0341 179.901 41.6515C181.487 40.2688 183.094 38.3168 184.72 35.7955C186.347 33.2741 187.811 30.3258 189.112 26.9505C190.007 24.5918 190.922 22.1925 191.857 19.7525C192.833 17.3125 193.809 14.9741 194.785 12.7375C195.761 10.4601 196.697 8.44712 197.591 6.69846C198.527 4.90912 199.401 3.50612 200.214 2.48946C201.068 1.43212 201.821 0.903454 202.471 0.903454C202.797 0.903454 203.081 1.04579 203.325 1.33045C203.569 1.57445 203.691 1.89979 203.691 2.30645C203.691 2.95712 203.346 4.07545 202.654 5.66145C202.004 7.20679 201.129 9.07745 200.031 11.2735C198.974 13.4288 197.856 15.7875 196.676 18.3495C195.497 20.9115 194.358 23.5141 193.26 26.1575C192.203 28.8008 191.329 31.3628 190.637 33.8435C189.987 36.2835 189.661 38.5201 189.661 40.5535C189.661 41.6921 189.722 42.5461 189.844 43.1155C189.966 43.6848 190.373 43.9695 191.064 43.9695C191.918 43.9695 192.915 43.6035 194.053 42.8715C195.192 42.1395 196.331 41.1025 197.469 39.7605C198.608 38.4185 199.604 36.8121 200.458 34.9415L201.19 35.4905C200.418 37.5645 199.36 39.4351 198.018 41.1025C196.676 42.7291 195.233 44.0101 193.687 44.9455C192.183 45.9215 190.739 46.4095 189.356 46.4095C187.852 46.4095 186.794 45.9011 186.184 44.8845C185.615 43.9085 185.33 42.8918 185.33 41.8345C185.33 41.1431 185.432 40.2281 185.635 39.0895C185.839 37.9508 186.123 36.6901 186.489 35.3075C185.188 37.4628 183.805 39.4148 182.341 41.1635C180.877 42.8715 179.434 44.2135 178.01 45.1895C176.628 46.1655 175.306 46.6535 174.045 46.6535ZM202.206 47.6905C200.946 47.6905 199.888 47.2635 199.034 46.4095C198.14 45.5961 197.692 44.3355 197.692 42.6275C197.692 41.1635 198.018 39.5978 198.668 37.9305C199.319 36.2225 200.214 34.5551 201.352 32.9285C202.491 31.2611 203.772 29.7565 205.195 28.4145C206.659 27.0318 208.184 25.9338 209.77 25.1205C211.397 24.3071 213.003 23.9005 214.589 23.9005C216.175 23.9005 217.497 24.3275 218.554 25.1815C219.612 25.9948 220.14 27.0928 220.14 28.4755C220.14 29.4921 219.856 30.1835 219.286 30.5495C218.758 30.9155 218.046 31.0985 217.151 31.0985C217.233 30.7731 217.294 30.4275 217.334 30.0615C217.416 29.6548 217.456 29.2888 217.456 28.9635C217.456 28.0281 217.233 27.2351 216.785 26.5845C216.338 25.8931 215.565 25.5475 214.467 25.5475C213.329 25.5475 212.17 25.9541 210.99 26.7675C209.811 27.5401 208.672 28.5975 207.574 29.9395C206.476 31.2408 205.5 32.6641 204.646 34.2095C203.792 35.7548 203.121 37.2798 202.633 38.7845C202.145 40.2891 201.901 41.6311 201.901 42.8105C201.901 44.3965 202.45 45.1895 203.548 45.1895C204.484 45.1895 205.5 44.7625 206.598 43.9085C207.696 43.0138 208.815 41.8955 209.953 40.5535C211.133 39.1708 212.251 37.7475 213.308 36.2835C214.366 34.8195 215.301 33.4775 216.114 32.2575C216.277 32.0135 216.379 31.8915 216.419 31.8915C216.663 31.9321 216.968 32.0135 217.334 32.1355C217.741 32.2575 218.087 32.4201 218.371 32.6235C218.656 32.8268 218.798 33.0911 218.798 33.4165C218.798 33.7825 218.615 34.2908 218.249 34.9415C217.883 35.5515 217.477 36.2631 217.029 37.0765C216.582 37.8898 216.175 38.7235 215.809 39.5775C215.443 40.3908 215.26 41.1635 215.26 41.8955C215.26 42.5055 215.423 43.1155 215.748 43.7255C216.074 44.2948 216.602 44.5795 217.334 44.5795C218.432 44.5795 219.876 43.7865 221.665 42.2005C223.455 40.5738 225.264 38.1541 227.094 34.9415L227.704 35.5515C226.85 37.7475 225.752 39.6791 224.41 41.3465C223.068 43.0138 221.625 44.3151 220.079 45.2505C218.575 46.1858 217.09 46.6535 215.626 46.6535C214.122 46.6535 213.003 46.2061 212.271 45.3115C211.58 44.4168 211.234 43.4408 211.234 42.3835C211.234 42.1395 211.255 41.8751 211.295 41.5905C211.336 41.2651 211.377 40.9398 211.417 40.6145C209.669 42.9731 208.062 44.7421 206.598 45.9215C205.175 47.1008 203.711 47.6905 202.206 47.6905ZM245.291 46.6535C244.6 46.6535 243.888 46.4705 243.156 46.1045C242.465 45.7791 241.896 45.2301 241.448 44.4575C240.96 43.6848 240.716 42.7088 240.716 41.5295C240.716 40.1875 241.042 38.6828 241.692 37.0155C242.343 35.3481 243.217 33.7011 244.315 32.0745C245.413 30.4071 246.674 28.8821 248.097 27.4995C249.521 26.0761 251.005 24.9578 252.55 24.1445C254.096 23.2905 255.621 22.8635 257.125 22.8635C257.979 22.8635 258.63 23.0261 259.077 23.3515C259.565 23.6361 259.809 24.1038 259.809 24.7545C259.809 24.9171 259.789 25.0595 259.748 25.1815C259.748 25.3035 259.728 25.4458 259.687 25.6085C259.484 25.2831 259.179 25.0595 258.772 24.9375C258.406 24.7748 257.939 24.6935 257.369 24.6935C256.068 24.6935 254.787 25.1001 253.526 25.9135C252.306 26.6861 251.168 27.7231 250.11 29.0245C249.094 30.2851 248.199 31.6475 247.426 33.1115C246.654 34.5755 246.044 35.9988 245.596 37.3815C245.19 38.7235 244.986 39.8621 244.986 40.7975C244.986 41.6921 245.19 42.4038 245.596 42.9325C246.003 43.4611 246.532 43.7255 247.182 43.7255C248.28 43.7255 249.602 43.0341 251.147 41.6515C252.733 40.2688 254.34 38.3168 255.966 35.7955C257.593 33.2741 259.057 30.3258 260.358 26.9505C261.253 24.5918 262.168 22.1925 263.103 19.7525C264.079 17.3125 265.055 14.9741 266.031 12.7375C267.007 10.4601 267.943 8.44712 268.837 6.69846C269.773 4.90912 270.647 3.50612 271.46 2.48946C272.314 1.43212 273.067 0.903454 273.717 0.903454C274.043 0.903454 274.327 1.04579 274.571 1.33045C274.815 1.57445 274.937 1.89979 274.937 2.30645C274.937 2.95712 274.592 4.07545 273.9 5.66145C273.25 7.20679 272.375 9.07745 271.277 11.2735C270.22 13.4288 269.102 15.7875 267.922 18.3495C266.743 20.9115 265.604 23.5141 264.506 26.1575C263.449 28.8008 262.575 31.3628 261.883 33.8435C261.233 36.2835 260.907 38.5201 260.907 40.5535C260.907 41.6921 260.968 42.5461 261.09 43.1155C261.212 43.6848 261.619 43.9695 262.31 43.9695C263.164 43.9695 264.161 43.6035 265.299 42.8715C266.438 42.1395 267.577 41.1025 268.715 39.7605C269.854 38.4185 270.85 36.8121 271.704 34.9415L272.436 35.4905C271.664 37.5645 270.606 39.4351 269.264 41.1025C267.922 42.7291 266.479 44.0101 264.933 44.9455C263.429 45.9215 261.985 46.4095 260.602 46.4095C259.098 46.4095 258.04 45.9011 257.43 44.8845C256.861 43.9085 256.576 42.8918 256.576 41.8345C256.576 41.1431 256.678 40.2281 256.881 39.0895C257.085 37.9508 257.369 36.6901 257.735 35.3075C256.434 37.4628 255.051 39.4148 253.587 41.1635C252.123 42.8715 250.68 44.2135 249.256 45.1895C247.874 46.1655 246.552 46.6535 245.291 46.6535ZM277.112 47.5075C274.632 47.5075 272.761 46.8161 271.5 45.4335C270.28 44.0915 269.67 42.4241 269.67 40.4315C269.67 38.6015 270.118 36.6698 271.012 34.6365C271.948 32.6031 273.168 30.6918 274.672 28.9025C276.218 27.1131 277.905 25.6695 279.735 24.5715C281.565 23.4328 283.375 22.8635 285.164 22.8635C286.1 22.8635 286.954 23.1075 287.726 23.5955C288.54 24.0835 288.946 25.0798 288.946 26.5845C288.946 28.1298 288.479 29.5938 287.543 30.9765C286.649 32.3185 285.449 33.5181 283.944 34.5755C282.48 35.6328 280.854 36.5071 279.064 37.1985C277.316 37.8491 275.567 38.2558 273.818 38.4185C273.737 38.8251 273.676 39.2115 273.635 39.5775C273.595 39.9435 273.574 40.2891 273.574 40.6145C273.574 41.2245 273.635 41.8345 273.757 42.4445C273.92 43.0545 274.184 43.6238 274.55 44.1525C274.916 44.6405 275.404 45.0268 276.014 45.3115C276.665 45.5961 277.458 45.7385 278.393 45.7385C280.142 45.7385 281.87 45.2505 283.578 44.2745C285.286 43.2578 286.872 41.9361 288.336 40.3095C289.8 38.6828 291.041 36.8935 292.057 34.9415L292.789 35.4905C291.691 37.9305 290.288 40.0451 288.58 41.8345C286.913 43.6238 285.083 45.0065 283.09 45.9825C281.138 46.9991 279.146 47.5075 277.112 47.5075ZM274.123 37.2595C275.221 36.8935 276.462 36.3648 277.844 35.6735C279.227 34.9415 280.549 34.0875 281.809 33.1115C283.111 32.1355 284.168 31.0578 284.981 29.8785C285.835 28.6991 286.262 27.4588 286.262 26.1575C286.262 25.7101 286.181 25.3645 286.018 25.1205C285.856 24.8765 285.51 24.7545 284.981 24.7545C284.005 24.7545 282.968 25.1408 281.87 25.9135C280.772 26.6455 279.715 27.6215 278.698 28.8415C277.682 30.0615 276.767 31.4035 275.953 32.8675C275.14 34.3315 274.53 35.7955 274.123 37.2595ZM295.901 46.6535C294.152 46.6535 292.892 46.0435 292.119 44.8235C291.387 43.6441 291.021 42.1598 291.021 40.3705C291.021 38.4185 291.387 36.1005 292.119 33.4165C292.851 30.7325 293.807 27.9061 294.986 24.9375C296.206 21.9688 297.528 19.0815 298.951 16.2755C300.374 13.4288 301.798 10.8465 303.221 8.52845C304.644 6.21045 305.946 4.36012 307.125 2.97745C308.345 1.59479 309.301 0.903454 309.992 0.903454C310.439 0.903454 310.805 1.16779 311.09 1.69645C311.375 2.18445 311.598 2.79445 311.761 3.52645C311.924 4.21779 312.005 4.84812 312.005 5.41745C312.005 6.51545 311.72 7.95912 311.151 9.74845C310.622 11.4971 309.85 13.4695 308.833 15.6655C307.857 17.8208 306.678 20.0168 305.295 22.2535C303.953 24.4495 302.469 26.5641 300.842 28.5975C299.256 30.6308 297.568 32.3795 295.779 33.8435C295.535 34.9415 295.332 36.0191 295.169 37.0765C295.047 38.0931 294.986 39.0691 294.986 40.0045C294.986 41.5905 295.21 42.7698 295.657 43.5425C296.104 44.3151 296.775 44.7015 297.67 44.7015C298.768 44.7015 299.846 44.2135 300.903 43.2375C302.001 42.2615 303.018 41.0415 303.953 39.5775C304.929 38.0728 305.763 36.5275 306.454 34.9415L307.369 35.4295C305.742 38.8861 303.973 41.6311 302.062 43.6645C300.151 45.6571 298.097 46.6535 295.901 46.6535ZM296.328 31.7695C297.751 30.3461 299.134 28.7195 300.476 26.8895C301.818 25.0188 303.058 23.0871 304.197 21.0945C305.376 19.1018 306.413 17.1701 307.308 15.2995C308.203 13.4288 308.894 11.7615 309.382 10.2975C309.87 8.79279 310.114 7.63379 310.114 6.82045C310.114 6.41379 310.053 6.14945 309.931 6.02745C309.85 5.90545 309.768 5.84445 309.687 5.84445C309.362 5.84445 308.792 6.37312 307.979 7.43045C307.206 8.44712 306.291 9.82979 305.234 11.5785C304.177 13.3271 303.099 15.3198 302.001 17.5565C300.903 19.7931 299.846 22.1315 298.829 24.5715C297.853 27.0115 297.019 29.4108 296.328 31.7695ZM334.459 50.1305C331.571 50.1305 329.233 49.3985 327.444 47.9345C325.695 46.5111 324.414 44.6608 323.601 42.3835C322.828 40.1061 322.442 37.7271 322.442 35.2465C322.442 32.0338 322.93 28.8008 323.906 25.5475C324.882 22.2941 326.203 19.2035 327.871 16.2755C329.579 13.3068 331.51 10.6838 333.666 8.40646C335.821 6.08845 338.078 4.27879 340.437 2.97745C342.836 1.63545 345.195 0.964453 347.513 0.964453C349.18 0.964453 350.522 1.37112 351.539 2.18445C352.596 2.95712 353.125 4.29912 353.125 6.21045C353.125 7.38979 352.921 8.73179 352.515 10.2365C352.108 11.7005 351.559 13.1238 350.868 14.5065C350.176 15.8485 349.404 16.9668 348.55 17.8615C347.736 18.7561 346.903 19.2035 346.049 19.2035C345.723 19.2035 345.378 19.1018 345.012 18.8985C344.686 18.6951 344.402 18.3291 344.158 17.8005C344.768 17.1091 345.439 16.2551 346.171 15.2385C346.943 14.1811 347.675 13.0831 348.367 11.9445C349.058 10.7651 349.607 9.62645 350.014 8.52845C350.461 7.38979 350.685 6.39345 350.685 5.53945C350.685 4.72612 350.441 4.07545 349.953 3.58745C349.505 3.05879 348.753 2.79446 347.696 2.79446C345.947 2.79446 344.117 3.50612 342.206 4.92945C340.335 6.35279 338.505 8.26412 336.716 10.6635C334.967 13.0221 333.381 15.6655 331.958 18.5935C330.534 21.5215 329.396 24.5105 328.542 27.5605C327.728 30.6105 327.322 33.5181 327.322 36.2835C327.322 38.2761 327.606 40.1875 328.176 42.0175C328.745 43.8068 329.66 45.2505 330.921 46.3485C332.222 47.4871 333.889 48.0565 335.923 48.0565C338.078 48.0565 340.213 47.4465 342.328 46.2265C344.483 45.0065 346.455 43.4001 348.245 41.4075C350.034 39.4148 351.457 37.2595 352.515 34.9415L353.369 35.5515C352.027 38.1948 350.4 40.6348 348.489 42.8715C346.577 45.0675 344.442 46.8161 342.084 48.1175C339.725 49.4595 337.183 50.1305 334.459 50.1305ZM354.17 47.6905C352.91 47.6905 351.852 47.2635 350.998 46.4095C350.104 45.5961 349.656 44.3355 349.656 42.6275C349.656 41.1635 349.982 39.5978 350.632 37.9305C351.283 36.2225 352.178 34.5551 353.316 32.9285C354.455 31.2611 355.736 29.7565 357.159 28.4145C358.623 27.0318 360.148 25.9338 361.734 25.1205C363.361 24.3071 364.967 23.9005 366.553 23.9005C368.139 23.9005 369.461 24.3275 370.518 25.1815C371.576 25.9948 372.104 27.0928 372.104 28.4755C372.104 29.4921 371.82 30.1835 371.25 30.5495C370.722 30.9155 370.01 31.0985 369.115 31.0985C369.197 30.7731 369.258 30.4275 369.298 30.0615C369.38 29.6548 369.42 29.2888 369.42 28.9635C369.42 28.0281 369.197 27.2351 368.749 26.5845C368.302 25.8931 367.529 25.5475 366.431 25.5475C365.293 25.5475 364.134 25.9541 362.954 26.7675C361.775 27.5401 360.636 28.5975 359.538 29.9395C358.44 31.2408 357.464 32.6641 356.61 34.2095C355.756 35.7548 355.085 37.2798 354.597 38.7845C354.109 40.2891 353.865 41.6311 353.865 42.8105C353.865 44.3965 354.414 45.1895 355.512 45.1895C356.448 45.1895 357.464 44.7625 358.562 43.9085C359.66 43.0138 360.779 41.8955 361.917 40.5535C363.097 39.1708 364.215 37.7475 365.272 36.2835C366.33 34.8195 367.265 33.4775 368.078 32.2575C368.241 32.0135 368.343 31.8915 368.383 31.8915C368.627 31.9321 368.932 32.0135 369.298 32.1355C369.705 32.2575 370.051 32.4201 370.335 32.6235C370.62 32.8268 370.762 33.0911 370.762 33.4165C370.762 33.7825 370.579 34.2908 370.213 34.9415C369.847 35.5515 369.441 36.2631 368.993 37.0765C368.546 37.8898 368.139 38.7235 367.773 39.5775C367.407 40.3908 367.224 41.1635 367.224 41.8955C367.224 42.5055 367.387 43.1155 367.712 43.7255C368.038 44.2948 368.566 44.5795 369.298 44.5795C370.396 44.5795 371.84 43.7865 373.629 42.2005C375.419 40.5738 377.228 38.1541 379.058 34.9415L379.668 35.5515C378.814 37.7475 377.716 39.6791 376.374 41.3465C375.032 43.0138 373.589 44.3151 372.043 45.2505C370.539 46.1858 369.054 46.6535 367.59 46.6535C366.086 46.6535 364.967 46.2061 364.235 45.3115C363.544 44.4168 363.198 43.4408 363.198 42.3835C363.198 42.1395 363.219 41.8751 363.259 41.5905C363.3 41.2651 363.341 40.9398 363.381 40.6145C361.633 42.9731 360.026 44.7421 358.562 45.9215C357.139 47.1008 355.675 47.6905 354.17 47.6905ZM377.018 61.9035C376.611 61.9035 376.143 61.7611 375.615 61.4765C375.086 61.2325 374.639 60.7241 374.273 59.9515C373.866 59.1788 373.663 58.0401 373.663 56.5355C373.663 54.7461 373.968 52.4078 374.578 49.5205C375.188 46.6738 376.021 43.5221 377.079 40.0655C378.136 36.6088 379.356 33.0708 380.739 29.4515C382.121 25.7915 383.606 22.2738 385.192 18.8985C386.818 15.4825 388.465 12.4325 390.133 9.74845C391.841 7.02379 393.508 4.86845 395.135 3.28245C396.761 1.69645 398.307 0.903454 399.771 0.903454C400.625 0.903454 401.174 1.16779 401.418 1.69645C401.702 2.22512 401.845 2.85545 401.845 3.58745C401.845 5.33612 401.357 7.24745 400.381 9.32145C399.445 11.3955 398.185 13.4898 396.599 15.6045C395.013 17.6785 393.264 19.6711 391.353 21.5825C389.441 23.4531 387.51 25.0595 385.558 26.4015C385.354 26.8895 385.151 27.3978 384.948 27.9265C384.785 28.4145 384.602 28.9228 384.399 29.4515C384.846 29.5328 385.192 29.7768 385.436 30.1835C385.72 30.5495 385.883 30.9561 385.924 31.4035C386.208 33.2335 386.513 34.8805 386.839 36.3445C387.164 37.7678 387.652 38.8861 388.303 39.6995C388.994 40.5128 389.97 40.9195 391.231 40.9195C392.654 40.9195 393.854 40.4111 394.83 39.3945C395.806 38.3371 396.863 36.8528 398.002 34.9415L398.917 35.5515C397.9 37.9915 396.599 39.7605 395.013 40.8585C393.467 41.9565 392.105 42.5055 390.926 42.5055C390.194 42.5055 389.421 42.3225 388.608 41.9565C387.835 41.5905 387.103 41.1025 386.412 40.4925C386.412 43.0545 386.127 45.5961 385.558 48.1175C385.029 50.6388 384.317 52.9365 383.423 55.0105C382.528 57.0845 381.532 58.7518 380.434 60.0125C379.336 61.2731 378.197 61.9035 377.018 61.9035ZM378.604 58.9755C379.051 58.9755 379.559 58.5688 380.129 57.7555C380.698 56.9421 381.247 55.8645 381.776 54.5225C382.345 53.2211 382.853 51.7775 383.301 50.1915C383.748 48.6055 384.114 47.0195 384.399 45.4335C384.683 43.8475 384.826 42.4241 384.826 41.1635C384.826 39.9028 384.663 38.7641 384.338 37.7475C384.012 36.6901 383.484 35.4498 382.752 34.0265C381.735 37.0765 380.82 40.0248 380.007 42.8715C379.193 45.7181 378.563 48.2801 378.116 50.5575C377.668 52.8348 377.445 54.6648 377.445 56.0475C377.445 57.9995 377.831 58.9755 378.604 58.9755ZM386.534 23.9005C389.177 21.4605 391.454 19.0205 393.366 16.5805C395.318 14.0998 396.822 11.9038 397.88 9.99245C398.937 8.04045 399.466 6.65779 399.466 5.84445C399.466 5.27512 399.181 4.99045 398.612 4.99045C397.554 4.99045 396.355 5.86479 395.013 7.61345C393.671 9.32145 392.268 11.5988 390.804 14.4455C389.34 17.2921 387.916 20.4438 386.534 23.9005ZM403.401 47.5075C400.921 47.5075 399.05 46.8161 397.789 45.4335C396.569 44.0915 395.959 42.4241 395.959 40.4315C395.959 38.6015 396.407 36.6698 397.301 34.6365C398.237 32.6031 399.457 30.6918 400.961 28.9025C402.507 27.1131 404.194 25.6695 406.024 24.5715C407.854 23.4328 409.664 22.8635 411.453 22.8635C412.389 22.8635 413.243 23.1075 414.015 23.5955C414.829 24.0835 415.235 25.0798 415.235 26.5845C415.235 28.1298 414.768 29.5938 413.832 30.9765C412.938 32.3185 411.738 33.5181 410.233 34.5755C408.769 35.6328 407.143 36.5071 405.353 37.1985C403.605 37.8491 401.856 38.2558 400.107 38.4185C400.026 38.8251 399.965 39.2115 399.924 39.5775C399.884 39.9435 399.863 40.2891 399.863 40.6145C399.863 41.2245 399.924 41.8345 400.046 42.4445C400.209 43.0545 400.473 43.6238 400.839 44.1525C401.205 44.6405 401.693 45.0268 402.303 45.3115C402.954 45.5961 403.747 45.7385 404.682 45.7385C406.431 45.7385 408.159 45.2505 409.867 44.2745C411.575 43.2578 413.161 41.9361 414.625 40.3095C416.089 38.6828 417.33 36.8935 418.346 34.9415L419.078 35.4905C417.98 37.9305 416.577 40.0451 414.869 41.8345C413.202 43.6238 411.372 45.0065 409.379 45.9825C407.427 46.9991 405.435 47.5075 403.401 47.5075ZM400.412 37.2595C401.51 36.8935 402.751 36.3648 404.133 35.6735C405.516 34.9415 406.838 34.0875 408.098 33.1115C409.4 32.1355 410.457 31.0578 411.27 29.8785C412.124 28.6991 412.551 27.4588 412.551 26.1575C412.551 25.7101 412.47 25.3645 412.307 25.1205C412.145 24.8765 411.799 24.7545 411.27 24.7545C410.294 24.7545 409.257 25.1408 408.159 25.9135C407.061 26.6455 406.004 27.6215 404.987 28.8415C403.971 30.0615 403.056 31.4035 402.242 32.8675C401.429 34.3315 400.819 35.7955 400.412 37.2595ZM412.856 19.3255C412.572 19.1628 412.348 18.8985 412.185 18.5325C412.063 18.1665 412.002 17.9021 412.002 17.7395C412.002 17.3735 412.206 16.8041 412.612 16.0315C413.06 15.2181 413.609 14.3845 414.259 13.5305C414.91 12.6358 415.601 11.8835 416.333 11.2735C417.065 10.6635 417.736 10.3585 418.346 10.3585C418.672 10.3585 418.956 10.5008 419.2 10.7855C419.485 11.0295 419.648 11.5175 419.688 12.2495C418.224 13.5101 416.943 14.7098 415.845 15.8485C414.747 16.9871 413.751 18.1461 412.856 19.3255Z" fill="#663300"/>
</svg>
